<svg width="32" height="32" viewBox="0 0 32 32" fill="none" xmlns="http://www.w3.org/2000/svg">
<path opacity="0.93" d="M16.0003 2.66797C8.64033 2.66797 2.66699 8.6413 2.66699 16.0013C2.66699 23.3613 8.64033 29.3346 16.0003 29.3346C23.3603 29.3346 29.3337 23.3613 29.3337 16.0013C29.3337 8.6413 23.3603 2.66797 16.0003 2.66797ZM21.827 19.1346L18.867 22.0946C18.147 22.8146 17.2137 23.1613 16.2803 23.1613C15.347 23.1613 14.4003 22.8013 13.6937 22.0946C13.0003 21.4013 12.6137 20.4813 12.6137 19.508C12.6137 18.5346 13.0003 17.6013 13.6937 16.9213L15.5737 15.0413C15.9603 14.6546 16.6003 14.6546 16.987 15.0413C17.3737 15.428 17.3737 16.068 16.987 16.4546L15.107 18.3346C14.787 18.6546 14.6137 19.068 14.6137 19.508C14.6137 19.948 14.787 20.3746 15.107 20.6813C15.7603 21.3346 16.8137 21.3346 17.467 20.6813L20.427 17.7213C22.1203 16.028 22.1203 13.2813 20.427 11.588C18.7337 9.89464 15.987 9.89464 14.2937 11.588L11.067 14.8146C10.387 15.4946 10.0137 16.388 10.0137 17.3346C10.0137 18.2813 10.387 19.188 11.067 19.8546C11.4537 20.2413 11.4537 20.8813 11.067 21.268C10.6803 21.6546 10.0403 21.6546 9.65366 21.268C8.58699 20.2413 8.00033 18.8413 8.00033 17.348C8.00033 15.8546 8.57366 14.4546 9.62699 13.4013L12.8537 10.1746C15.3203 7.70797 19.347 7.70797 21.8137 10.1746C24.2937 12.6413 24.2937 16.668 21.827 19.1346Z" fill="#FF7A00"/>
</svg>
