<svg width="695" height="574" viewBox="0 0 695 574" fill="none" xmlns="http://www.w3.org/2000/svg">
<path d="M623.056 305.198C619.714 317.67 615.542 329.88 610.611 341.777C599.024 369.733 583.25 395.958 564.226 419.785C495.742 505.559 385.142 560.241 276.181 552.622C124.072 541.985 32.7564 413.965 72.2212 266.68C108.769 130.283 244.661 25.1967 385.36 18.8541C396.591 18.3479 407.852 18.4707 419.096 19.257C425.468 19.7025 431.733 20.3541 437.887 21.2045C578.626 40.6533 660.867 164.084 623.056 305.198Z" fill="#FDA655"/>
<path fill-rule="evenodd" clip-rule="evenodd" d="M385.36 18.8541L372.371 67.3312C368.296 82.5387 356.317 95.8814 344.927 108.569C344.57 108.965 344.215 109.361 343.86 109.757C334.179 120.549 326.502 134.212 322.458 149.304C312.438 186.7 328.519 218.709 358.376 220.796C388.234 222.884 420.561 194.261 430.581 156.864C434.676 141.584 434.412 127.203 430.631 115.395C430.434 114.779 430.236 114.162 430.037 113.544C425.547 99.5758 420.824 84.8847 424.961 69.4431L437.887 21.2045C431.733 20.3541 425.468 19.7025 419.096 19.257C407.852 18.4707 396.591 18.3479 385.36 18.8541Z" fill="#1A1A1A"/>
<path fill-rule="evenodd" clip-rule="evenodd" d="M288.972 274.221C244.587 270.29 198.656 302.518 187.082 345.715C175.507 388.911 202.795 426.259 247.616 428.566L360.855 434.394C388.008 435.792 415.294 423.617 434.315 403.959C481.218 412.304 522.022 417.422 564.226 419.785C583.25 395.958 599.024 369.733 610.611 341.777L458.11 331.113C452.3 305.687 431.053 286.804 401.112 284.153L288.972 274.221Z" fill="#1A1A1A"/>
<path d="M623.056 305.198C619.714 317.67 615.542 329.88 610.611 341.777C599.024 369.733 583.25 395.958 564.226 419.785C495.742 505.559 385.142 560.241 276.181 552.622C124.072 541.985 32.7564 413.965 72.2212 266.68C108.769 130.283 244.661 25.1967 385.36 18.8541C396.591 18.3479 407.852 18.4707 419.096 19.257C425.468 19.7025 431.733 20.3541 437.887 21.2045C578.626 40.6533 660.867 164.084 623.056 305.198Z" fill="#FDA655"/>
<path fill-rule="evenodd" clip-rule="evenodd" d="M385.36 18.8541L372.371 67.3312C368.296 82.5387 356.317 95.8814 344.927 108.569C344.57 108.965 344.215 109.361 343.86 109.757C334.179 120.549 326.502 134.212 322.458 149.304C312.438 186.7 328.519 218.709 358.376 220.796C388.234 222.884 420.561 194.261 430.581 156.864C434.676 141.584 434.412 127.203 430.631 115.395C430.434 114.779 430.236 114.162 430.037 113.544C425.547 99.5758 420.824 84.8847 424.961 69.4431L437.887 21.2045C431.733 20.3541 425.468 19.7025 419.096 19.257C407.852 18.4707 396.591 18.3479 385.36 18.8541Z" fill="#1A1A1A"/>
<path fill-rule="evenodd" clip-rule="evenodd" d="M288.972 274.221C244.587 270.29 198.656 302.518 187.082 345.715C175.507 388.911 202.795 426.259 247.616 428.566L360.855 434.394C388.008 435.792 415.294 423.617 434.315 403.959C481.218 412.304 522.022 417.422 564.226 419.785C583.25 395.958 599.024 369.733 610.611 341.777L458.11 331.113C452.3 305.687 431.053 286.804 401.112 284.153L288.972 274.221Z" fill="#1A1A1A"/>
<path d="M566.08 75.5342C645.803 125.33 684.317 220.688 656.134 325.87C652.792 338.342 648.62 350.552 643.689 362.449C632.102 390.405 616.328 416.63 597.304 440.457C528.82 526.231 418.22 580.913 309.259 573.293C265.78 570.253 227.267 557.621 195.357 537.69C115.632 487.895 77.1154 392.536 105.299 287.352C141.847 150.955 277.739 45.8686 418.439 39.526C429.669 39.0198 440.93 39.1426 452.174 39.9288C458.546 40.3744 464.812 41.026 470.965 41.8764C506.802 46.8286 538.846 58.5228 566.08 75.5342Z" fill="#D17823"/>
<path fill-rule="evenodd" clip-rule="evenodd" d="M418.439 39.526L405.449 88.0031C401.374 103.211 389.395 116.553 378.005 129.241C377.649 129.637 377.293 130.033 376.938 130.428C367.257 141.221 359.58 154.884 355.536 169.976C347.783 198.911 355.656 224.62 373.446 235.74C378.648 238.992 384.699 240.996 391.454 241.468C421.312 243.556 453.639 214.933 463.659 177.536C467.754 162.256 467.49 147.874 463.709 136.067C463.512 135.451 463.314 134.834 463.115 134.216C458.625 120.248 453.902 105.557 458.04 90.115L470.965 41.8764C464.812 41.026 458.546 40.3744 452.174 39.9288C440.93 39.1426 429.669 39.0198 418.439 39.526Z" fill="#D17823"/>
<path fill-rule="evenodd" clip-rule="evenodd" d="M322.05 294.893C277.665 290.962 231.734 323.19 220.16 366.386C211.993 396.866 223.174 424.433 246.211 438.834C255.823 444.842 267.499 448.558 280.694 449.237L393.933 455.066C421.086 456.464 448.372 444.289 467.393 424.631C514.297 432.976 555.1 438.094 597.304 440.457C616.328 416.63 632.102 390.405 643.689 362.449L491.188 351.785C487.644 336.274 478.355 323.199 464.853 314.758C456.221 309.361 445.866 305.859 434.19 304.825L322.05 294.893Z" fill="#D17823"/>
<path d="M385.36 18.8555C244.66 25.1981 108.768 130.284 72.2207 266.682L105.3 287.352C141.847 150.954 277.739 45.8681 418.439 39.5255L385.36 18.8555Z" fill="#D17823"/>
<path d="M72.2212 266.684C44.0373 371.867 82.5536 467.226 162.278 517.022L195.284 537.646C115.609 487.838 77.125 392.505 105.3 287.354L72.2212 266.684Z" fill="#D17823"/>
<path d="M372.371 67.3326L385.36 18.8555L418.44 39.5255L405.45 88.0026L372.371 67.3326Z" fill="#D17823"/>
<path d="M343.86 109.758C344.215 109.363 344.571 108.967 344.927 108.57L378.006 129.24C377.65 129.637 377.294 130.033 376.939 130.428L343.86 109.758Z" fill="#D17823"/>
<path d="M344.926 108.569C356.316 95.8821 368.295 82.5394 372.37 67.332L405.449 88.0021C401.375 103.209 389.396 116.552 378.005 129.239L378.005 129.24L344.926 108.57L344.926 108.569Z" fill="#D17823"/>
<path d="M385.36 18.8541C396.591 18.3479 407.852 18.4707 419.096 19.257L452.175 39.927C440.931 39.1408 429.67 39.0179 418.439 39.5242L385.36 18.8541Z" fill="#D17823"/>
<path d="M187.081 345.716C198.655 302.52 244.586 270.292 288.972 274.223L322.051 294.893C277.665 290.962 231.734 323.19 220.16 366.386L187.081 345.716Z" fill="#D17823"/>
<path d="M213.133 418.166C190.096 403.765 178.915 376.198 187.081 345.719L220.16 366.389C211.994 396.868 223.175 424.435 246.212 438.836L213.133 418.166Z" fill="#D17823"/>
<path d="M419.096 19.2578C425.468 19.7034 431.733 20.355 437.887 21.2053L470.966 41.8754C464.812 41.025 458.547 40.3735 452.175 39.9279L419.096 19.2578Z" fill="#D17823"/>
<path d="M340.368 215.069C322.578 203.949 314.705 178.24 322.458 149.305L355.537 169.975C347.784 198.91 355.657 224.619 373.447 235.739L340.368 215.069Z" fill="#D17823"/>
<path d="M437.886 21.207L424.961 69.4457L458.04 90.1157L470.965 41.8771L437.886 21.207Z" fill="#D17823"/>
<path d="M430.036 113.546L430.036 113.546L463.115 134.216C458.625 120.248 453.902 105.557 458.04 90.1154L424.961 69.4453C420.823 84.8868 425.546 99.5779 430.036 113.546Z" fill="#D17823"/>
<path d="M358.376 220.799C351.625 220.327 345.578 218.324 340.377 215.076L373.447 235.74C378.649 238.992 384.7 240.996 391.455 241.469L358.376 220.799Z" fill="#D17823"/>
<path d="M247.616 428.568C234.429 427.889 222.76 424.177 213.151 418.176L246.212 438.834C255.824 444.843 267.499 448.559 280.695 449.238L247.616 428.568Z" fill="#D17823"/>
<path d="M430.037 113.547C430.236 114.165 430.434 114.782 430.631 115.398L463.71 136.068C463.513 135.452 463.315 134.835 463.116 134.217L430.037 113.547Z" fill="#D17823"/>
<path d="M533.002 54.8648C505.767 37.8535 473.723 26.1593 437.887 21.207L470.966 41.8771C506.802 46.8294 538.846 58.5236 566.081 75.5349L533.002 54.8648Z" fill="#D17823"/>
<path d="M430.581 156.867C420.56 194.264 388.233 222.887 358.376 220.799L391.455 241.469C421.312 243.557 453.64 214.934 463.66 177.537L430.581 156.867Z" fill="#D17823"/>
<path d="M430.63 115.398C434.411 127.206 434.675 141.587 430.58 156.868L463.659 177.538C467.754 162.257 467.49 147.876 463.709 136.069L430.63 115.398Z" fill="#D17823"/>
<path d="M288.972 274.223L401.111 284.154L434.19 304.824L322.051 294.893L288.972 274.223Z" fill="#D17823"/>
<path d="M162.278 517.02C194.189 536.951 232.701 549.582 276.181 552.623L309.26 573.293C265.78 570.252 227.268 557.621 195.357 537.69L162.278 517.02Z" fill="#D17823"/>
<path d="M360.854 434.395L247.615 428.566L280.694 449.236L393.933 455.065L360.854 434.395Z" fill="#D17823"/>
<path d="M401.111 284.156C412.788 285.19 423.142 288.693 431.774 294.089L464.831 314.746C456.204 309.357 445.857 305.86 434.19 304.826L401.111 284.156Z" fill="#D17823"/>
<path d="M431.774 294.09C445.277 302.531 454.566 315.607 458.11 331.117L491.189 351.787C487.645 336.277 478.356 323.201 464.853 314.76L431.774 294.09Z" fill="#D17823"/>
<path d="M434.314 403.961C415.292 423.619 388.007 435.794 360.854 434.396L393.933 455.066C421.086 456.464 448.371 444.289 467.393 424.631L434.314 403.961Z" fill="#D17823"/>
<path d="M458.109 331.113L610.61 341.777L643.689 362.447L491.188 351.783L458.109 331.113Z" fill="#D17823"/>
<path d="M564.226 419.787C522.021 417.424 481.218 412.306 434.314 403.961L467.393 424.631C514.297 432.976 555.1 438.094 597.305 440.457L564.226 419.787Z" fill="#D17823"/>
<path fill-rule="evenodd" clip-rule="evenodd" d="M623.055 305.199C651.231 200.046 612.746 104.713 533.068 54.9049L566.081 75.5333C645.803 125.33 684.318 220.687 656.134 325.869L656.135 325.869C652.793 338.341 648.62 350.551 643.69 362.448L610.611 341.778C615.541 329.881 619.714 317.671 623.056 305.199L623.055 305.199ZM276.181 552.623C385.142 560.242 495.741 505.56 564.226 419.786L597.305 440.456C528.82 526.23 418.221 580.912 309.26 573.293L276.181 552.623Z" fill="url(#paint0_radial_25138_29741)"/>
<path d="M610.61 341.781C599.023 369.737 583.249 395.963 564.226 419.789L597.305 440.459C616.328 416.633 632.102 390.407 643.689 362.451L610.61 341.781Z" fill="#1A1A1A"/>
<path d="M430.037 113.546C425.547 99.5779 420.824 84.8868 424.962 69.4452L437.887 21.2066C431.734 20.3562 425.468 19.7046 419.096 19.2591C407.852 18.4728 396.591 18.35 385.361 18.8562L372.371 67.3333C368.296 82.5408 356.317 95.8835 344.927 108.571C344.571 108.967 344.215 109.363 343.86 109.759C334.179 120.551 326.502 134.214 322.459 149.306C312.438 186.702 328.519 218.711 358.376 220.798C388.234 222.886 420.561 194.263 430.581 156.867C434.676 141.586 434.412 127.205 430.631 115.397C430.466 114.88 430.3 114.363 430.133 113.844L430.079 113.675L430.05 113.585L430.037 113.546Z" fill="#1A1A1A"/>
<path d="M288.972 274.223C244.587 270.293 198.656 302.52 187.082 345.717C175.508 388.913 202.795 426.261 247.616 428.568L360.855 434.396C388.008 435.794 415.294 423.62 434.315 403.961C481.219 412.306 522.022 417.424 564.226 419.787C583.25 395.961 599.024 369.735 610.611 341.779L458.11 331.115C452.301 305.689 431.053 286.807 401.112 284.155L288.972 274.223Z" fill="#1A1A1A"/>
<path d="M72.2214 266.682C32.7566 413.967 124.073 541.987 276.181 552.624C385.143 560.243 495.742 505.561 564.226 419.787C522.022 417.424 481.219 412.306 434.315 403.961C415.294 423.62 388.008 435.794 360.855 434.396L247.616 428.568C202.795 426.261 175.508 388.913 187.082 345.717C198.656 302.52 244.587 270.293 288.972 274.223L401.112 284.155C431.053 286.807 452.301 305.689 458.11 331.115L610.611 341.779C615.542 329.882 619.714 317.672 623.056 305.2C660.867 164.086 578.626 40.6554 437.887 21.2066L424.962 69.4452C420.824 84.8868 425.547 99.5779 430.037 113.546L430.05 113.585L430.079 113.675L430.133 113.844C430.3 114.363 430.466 114.88 430.631 115.397C434.412 127.205 434.676 141.586 430.581 156.867C420.561 194.263 388.234 222.886 358.376 220.798C328.519 218.711 312.438 186.702 322.459 149.306C326.502 134.214 334.179 120.551 343.86 109.759C344.215 109.363 344.571 108.967 344.927 108.571C356.317 95.8835 368.296 82.5408 372.371 67.3333L385.361 18.8562C244.661 25.1988 108.769 130.285 72.2214 266.682Z" fill="url(#paint1_linear_25138_29741)"/>
<path d="M430.037 113.546C425.547 99.5779 420.824 84.8868 424.962 69.4452L437.887 21.2066M430.037 113.546L430.05 113.585M430.037 113.546C430.041 113.559 430.046 113.572 430.05 113.585M385.361 18.8562L372.371 67.3333C368.296 82.5408 356.317 95.8835 344.927 108.571C344.571 108.967 344.215 109.363 343.86 109.759C334.179 120.551 326.502 134.214 322.459 149.306C312.438 186.702 328.519 218.711 358.376 220.798C388.234 222.886 420.561 194.263 430.581 156.867C434.676 141.586 434.412 127.205 430.631 115.397C430.466 114.88 430.3 114.363 430.133 113.844M385.361 18.8562C396.591 18.35 407.852 18.4728 419.096 19.2591C425.468 19.7046 431.734 20.3562 437.887 21.2066M385.361 18.8562C244.661 25.1988 108.769 130.285 72.2214 266.682C32.7566 413.967 124.073 541.987 276.181 552.624C385.142 560.243 495.742 505.561 564.226 419.787M437.887 21.2066C578.626 40.6554 660.868 164.086 623.056 305.2C619.714 317.672 615.542 329.882 610.611 341.779M564.226 419.787C522.022 417.424 481.219 412.306 434.315 403.961C415.294 423.62 388.008 435.794 360.855 434.396L247.616 428.568C202.795 426.261 175.508 388.913 187.082 345.717C198.656 302.52 244.587 270.293 288.972 274.224L401.112 284.155C431.053 286.806 452.301 305.689 458.11 331.115L610.611 341.779M564.226 419.787C583.25 395.961 599.024 369.735 610.611 341.779M430.05 113.585L430.079 113.675M430.05 113.585C430.06 113.615 430.069 113.645 430.079 113.675M430.079 113.675L430.133 113.844M430.079 113.675C430.097 113.732 430.115 113.788 430.133 113.844" stroke="url(#paint2_linear_25138_29741)" stroke-opacity="0.24" stroke-width="4.81342"/>
<defs>
<radialGradient id="paint0_radial_25138_29741" cx="0" cy="0" r="1" gradientUnits="userSpaceOnUse" gradientTransform="translate(618.501 122.309) rotate(108.113) scale(475.241 417.223)">
<stop stop-color="#F09741"/>
<stop offset="1" stop-color="#D17823"/>
</radialGradient>
<linearGradient id="paint1_linear_25138_29741" x1="542.831" y1="-54.7302" x2="346.748" y2="559.635" gradientUnits="userSpaceOnUse">
<stop stop-color="#FFB067"/>
<stop offset="1" stop-color="#FFC997"/>
</linearGradient>
<linearGradient id="paint2_linear_25138_29741" x1="419.096" y1="19.2591" x2="381.286" y2="559.973" gradientUnits="userSpaceOnUse">
<stop stop-color="white"/>
<stop offset="1" stop-color="white" stop-opacity="0"/>
</linearGradient>
</defs>
</svg>
