<svg width="577" height="394" viewBox="0 0 577 394" fill="none" xmlns="http://www.w3.org/2000/svg">
<path d="M517.131 229.625C514.354 239.989 510.886 250.136 506.789 260.022C497.16 283.254 484.052 305.048 468.243 324.848C411.331 396.127 319.422 441.568 228.874 435.236C102.47 426.397 26.5858 320.011 59.3814 197.616C89.7529 84.2684 202.68 -3.05917 319.603 -8.32994C328.936 -8.75065 338.294 -8.64856 347.638 -7.99519C352.933 -7.62491 358.14 -7.08344 363.254 -6.37677C480.209 9.78536 548.553 112.357 517.131 229.625Z" fill="#FDA655"/>
<path fill-rule="evenodd" clip-rule="evenodd" d="M319.603 -8.32994L308.809 31.955C305.423 44.5926 295.468 55.6805 286.002 66.2238C285.706 66.5534 285.411 66.8824 285.116 67.211C277.071 76.1795 270.692 87.5336 267.331 100.075C259.004 131.152 272.368 157.751 297.179 159.486C321.991 161.221 348.855 137.435 357.182 106.358C360.585 93.6596 360.366 81.7087 357.224 71.8963C357.06 71.3848 356.895 70.8721 356.73 70.3582C352.999 58.7506 349.074 46.5421 352.512 33.71L363.254 -6.37677C358.14 -7.08344 352.933 -7.62491 347.638 -7.99519C338.294 -8.64856 328.936 -8.75065 319.603 -8.32994Z" fill="#1A1A1A"/>
<path fill-rule="evenodd" clip-rule="evenodd" d="M239.504 203.883C202.619 200.616 164.45 227.398 154.832 263.294C145.213 299.191 167.89 330.227 205.136 332.145L299.239 336.988C321.803 338.15 344.478 328.033 360.285 311.696C399.262 318.631 433.171 322.884 468.243 324.848C484.052 305.048 497.16 283.254 506.789 260.022L380.059 251.16C375.231 230.031 357.574 214.339 332.693 212.136L239.504 203.883Z" fill="#1A1A1A"/>
<path d="M517.131 229.625C514.354 239.989 510.886 250.136 506.789 260.022C497.16 283.254 484.052 305.048 468.243 324.848C411.331 396.127 319.422 441.568 228.874 435.236C102.47 426.397 26.5858 320.011 59.3814 197.616C89.7529 84.2684 202.68 -3.05917 319.603 -8.32994C328.936 -8.75065 338.294 -8.64856 347.638 -7.99519C352.933 -7.62491 358.14 -7.08344 363.254 -6.37677C480.209 9.78536 548.553 112.357 517.131 229.625Z" fill="#FDA655"/>
<path fill-rule="evenodd" clip-rule="evenodd" d="M319.603 -8.32994L308.809 31.955C305.423 44.5926 295.468 55.6805 286.002 66.2238C285.706 66.5534 285.411 66.8824 285.116 67.211C277.071 76.1795 270.692 87.5336 267.331 100.075C259.004 131.152 272.368 157.751 297.179 159.486C321.991 161.221 348.855 137.435 357.182 106.358C360.585 93.6596 360.366 81.7087 357.224 71.8963C357.06 71.3848 356.895 70.8721 356.73 70.3582C352.999 58.7506 349.074 46.5421 352.512 33.71L363.254 -6.37677C358.14 -7.08344 352.933 -7.62491 347.638 -7.99519C338.294 -8.64856 328.936 -8.75065 319.603 -8.32994Z" fill="#1A1A1A"/>
<path fill-rule="evenodd" clip-rule="evenodd" d="M239.504 203.883C202.619 200.616 164.45 227.398 154.832 263.294C145.213 299.191 167.89 330.227 205.136 332.145L299.239 336.988C321.803 338.15 344.478 328.033 360.285 311.696C399.262 318.631 433.171 322.884 468.243 324.848C484.052 305.048 497.16 283.254 506.789 260.022L380.059 251.16C375.231 230.031 357.574 214.339 332.693 212.136L239.504 203.883Z" fill="#1A1A1A"/>
<path d="M469.784 38.769C536.035 80.1502 568.041 159.393 544.62 246.801C541.843 257.165 538.376 267.312 534.278 277.198C524.649 300.43 511.541 322.223 495.732 342.023C438.82 413.303 346.911 458.744 256.364 452.412C220.231 449.886 188.227 439.389 161.709 422.826C95.457 381.445 63.4495 302.201 86.8707 214.792C117.242 101.444 230.17 14.1166 347.093 8.84584C356.425 8.42513 365.783 8.52722 375.127 9.18059C380.422 9.55087 385.629 10.0923 390.743 10.799C420.523 14.9144 447.152 24.6324 469.784 38.769Z" fill="#D17823"/>
<path fill-rule="evenodd" clip-rule="evenodd" d="M347.093 8.84584L336.298 49.1308C332.912 61.7684 322.957 72.8563 313.492 83.3996C313.196 83.7292 312.9 84.0582 312.606 84.3868C304.56 93.3553 298.181 104.709 294.82 117.251C288.377 141.296 294.92 162.661 309.704 171.902C314.027 174.604 319.055 176.269 324.669 176.662C349.48 178.397 376.345 154.611 384.672 123.534C388.074 110.835 387.855 98.8845 384.713 89.0721C384.549 88.5606 384.385 88.0479 384.219 87.534C380.488 75.9264 376.563 63.7179 380.002 50.8858L390.743 10.799C385.629 10.0923 380.422 9.55087 375.127 9.18059C365.783 8.52722 356.425 8.42513 347.093 8.84584Z" fill="#D17823"/>
<path fill-rule="evenodd" clip-rule="evenodd" d="M266.993 221.059C230.108 217.792 191.939 244.574 182.321 280.47C175.534 305.799 184.826 328.708 203.97 340.675C211.957 345.668 221.66 348.756 232.625 349.32L326.728 354.164C349.293 355.325 371.967 345.208 387.774 328.872C426.752 335.807 460.66 340.06 495.732 342.023C511.541 322.223 524.649 300.43 534.278 277.198L407.548 268.336C404.603 255.447 396.884 244.581 385.663 237.566C378.49 233.082 369.885 230.171 360.182 229.312L266.993 221.059Z" fill="#D17823"/>
<path d="M319.604 -8.33203C202.681 -3.06126 89.7533 84.2663 59.3818 197.614L86.8708 214.791C117.242 101.443 230.17 14.1158 347.093 8.84501L319.604 -8.33203Z" fill="#D17823"/>
<path d="M59.3814 197.617C35.9603 285.026 67.9677 364.27 134.22 405.651L161.648 422.79C95.4371 381.398 63.4565 302.176 86.8704 214.794L59.3814 197.617Z" fill="#D17823"/>
<path d="M308.81 31.9529L319.604 -8.33203L347.093 8.84501L336.299 49.13L308.81 31.9529Z" fill="#D17823"/>
<path d="M285.116 67.2098C285.411 66.8813 285.706 66.5522 286.002 66.2227L313.491 83.3997L313.487 83.4043C313.193 83.7323 312.899 84.0599 312.605 84.3869L285.116 67.2098Z" fill="#D17823"/>
<path d="M286.002 66.2218C295.468 55.6785 305.422 44.5906 308.809 31.9531L336.298 49.1302C332.911 61.7677 322.957 72.8556 313.491 83.3989L313.491 83.3989L286.002 66.2219L286.002 66.2218Z" fill="#D17823"/>
<path d="M319.604 -8.32994C328.936 -8.75065 338.294 -8.64856 347.638 -7.99519L375.127 9.18185C365.783 8.52848 356.425 8.42639 347.093 8.8471L319.604 -8.32994Z" fill="#D17823"/>
<path d="M154.832 263.295C164.45 227.398 202.619 200.616 239.504 203.883L266.993 221.06C230.108 217.794 191.939 244.575 182.321 280.472L154.832 263.295Z" fill="#D17823"/>
<path d="M176.481 323.497C157.337 311.53 148.045 288.622 154.832 263.293L182.321 280.47C175.534 305.799 184.826 328.707 203.97 340.674L176.481 323.497Z" fill="#D17823"/>
<path d="M347.638 -7.99609C352.933 -7.62581 358.14 -7.08434 363.253 -6.37767L390.742 10.7994C385.629 10.0927 380.422 9.55123 375.127 9.18095L347.638 -7.99609Z" fill="#D17823"/>
<path d="M282.214 154.725C267.43 145.484 260.888 124.12 267.331 100.074L294.82 117.251C288.377 141.297 294.919 162.661 309.703 171.902L282.214 154.725Z" fill="#D17823"/>
<path d="M363.253 -6.37891L352.512 33.7079L380.001 50.885L390.742 10.7981L363.253 -6.37891Z" fill="#D17823"/>
<path d="M356.731 70.359L356.731 70.3591L384.22 87.5362L384.22 87.5361C380.488 75.9285 376.564 63.72 380.002 50.888L352.513 33.7109C349.075 46.543 352.999 58.7514 356.731 70.359Z" fill="#D17823"/>
<path d="M297.18 159.487C291.569 159.095 286.544 157.431 282.222 154.731L309.704 171.904C314.027 174.606 319.055 176.271 324.669 176.664L297.18 159.487Z" fill="#D17823"/>
<path d="M205.136 332.146C194.178 331.582 184.481 328.497 176.496 323.51L203.969 340.677C211.957 345.67 221.66 348.758 232.625 349.323L205.136 332.146Z" fill="#D17823"/>
<path d="M356.73 70.3594C356.896 70.8733 357.06 71.3859 357.224 71.8975L384.713 89.0745C384.549 88.563 384.385 88.0503 384.219 87.5364L356.73 70.3594Z" fill="#D17823"/>
<path d="M442.296 21.5911C419.663 7.45448 393.035 -2.26351 363.254 -6.37891L390.743 10.7981C420.524 14.9135 447.152 24.6315 469.785 38.7681L442.296 21.5911Z" fill="#D17823"/>
<path d="M357.183 106.359C348.856 137.436 321.991 161.223 297.18 159.488L324.669 176.665C349.48 178.4 376.345 154.613 384.672 123.536L357.183 106.359Z" fill="#D17823"/>
<path d="M357.224 71.8945C360.366 81.7069 360.585 93.6578 357.183 106.356L384.672 123.533C388.074 110.835 387.855 98.884 384.713 89.0716L357.224 71.8945Z" fill="#D17823"/>
<path d="M239.504 203.883L332.693 212.136L360.182 229.313L266.993 221.06L239.504 203.883Z" fill="#D17823"/>
<path d="M299.24 336.988L205.137 332.145L232.626 349.322L326.729 354.165L299.24 336.988Z" fill="#D17823"/>
<path d="M332.693 212.137C342.396 212.996 351.001 215.907 358.174 220.391L385.645 237.557C378.476 233.079 369.877 230.172 360.182 229.314L332.693 212.137Z" fill="#D17823"/>
<path d="M358.174 220.391C369.395 227.405 377.114 238.271 380.059 251.161L407.548 268.338C404.603 255.448 396.884 244.582 385.663 237.568L358.174 220.391Z" fill="#D17823"/>
<path d="M360.285 311.695C344.478 328.032 321.804 338.149 299.239 336.987L326.728 354.164C349.293 355.326 371.968 345.209 387.775 328.872L360.285 311.695Z" fill="#D17823"/>
<path d="M380.06 251.16L506.789 260.022L534.278 277.199L407.549 268.337L380.06 251.16Z" fill="#D17823"/>
<path d="M468.243 324.847C433.17 322.883 399.262 318.63 360.285 311.695L387.774 328.872C426.751 335.807 460.66 340.06 495.732 342.024L468.243 324.847Z" fill="#D17823"/>
<path fill-rule="evenodd" clip-rule="evenodd" d="M517.131 229.626C540.545 142.242 508.563 63.0191 442.35 21.6283L469.784 38.7708C536.034 80.152 568.04 159.395 544.62 246.803C541.843 257.167 538.375 267.313 534.278 277.2L506.789 260.023C510.886 250.136 514.354 239.99 517.131 229.626ZM228.874 435.237C319.422 441.569 411.331 396.128 468.242 324.848L495.732 342.025C438.82 413.305 346.911 458.746 256.363 452.414L228.874 435.237Z" fill="url(#paint0_radial_25138_29477)"/>
<path d="M506.789 260.023C497.161 283.255 484.052 305.049 468.243 324.849L495.732 342.026C511.541 322.226 524.65 300.432 534.278 277.2L506.789 260.023Z" fill="#1A1A1A"/>
<path d="M356.731 70.3579C352.999 58.7503 349.074 46.5418 352.513 33.7097L363.254 -6.37711C358.14 -7.08377 352.934 -7.62524 347.638 -7.99553C338.295 -8.6489 328.937 -8.75098 319.604 -8.33028L308.81 31.9547C305.423 44.5922 295.469 55.6802 286.003 66.2235C285.707 66.553 285.412 66.8821 285.117 67.2106C277.072 76.1792 270.692 87.5332 267.332 100.075C259.005 131.152 272.368 157.751 297.18 159.486C321.991 161.221 348.856 137.435 357.183 106.358C360.585 93.6592 360.366 81.7084 357.224 71.896C357.087 71.4666 356.949 71.0365 356.81 70.6055L356.765 70.4655L356.741 70.3903L356.731 70.3579Z" fill="#1A1A1A"/>
<path d="M239.504 203.883C202.619 200.616 164.451 227.398 154.832 263.294C145.214 299.191 167.89 330.227 205.137 332.144L299.239 336.988C321.804 338.149 344.479 328.032 360.286 311.696C399.263 318.631 433.171 322.884 468.243 324.847C484.052 305.047 497.161 283.254 506.789 260.022L380.059 251.16C375.232 230.031 357.575 214.339 332.694 212.136L239.504 203.883Z" fill="#1A1A1A"/>
<path d="M59.3819 197.616C26.5862 320.011 102.471 426.397 228.875 435.236C319.423 441.568 411.332 396.127 468.243 324.847C433.171 322.884 399.263 318.631 360.286 311.696C344.479 328.032 321.804 338.149 299.239 336.988L205.137 332.144C167.89 330.227 145.214 299.191 154.832 263.294C164.451 227.398 202.619 200.616 239.504 203.883L332.694 212.136C357.575 214.339 375.232 230.031 380.059 251.16L506.789 260.022C510.887 250.136 514.354 239.989 517.131 229.625C548.553 112.357 480.209 9.78503 363.254 -6.37711L352.513 33.7097C349.074 46.5418 352.999 58.7503 356.731 70.3579L356.741 70.3903L356.765 70.4655L356.81 70.6055C356.949 71.0365 357.087 71.4666 357.224 71.896C360.366 81.7084 360.585 93.6592 357.183 106.358C348.856 137.435 321.991 161.221 297.18 159.486C272.368 157.751 259.005 131.152 267.332 100.075C270.692 87.5332 277.072 76.1792 285.117 67.2106C285.412 66.8821 285.707 66.553 286.003 66.2235C295.469 55.6802 305.423 44.5922 308.81 31.9547L319.604 -8.33028C202.681 -3.05951 89.7533 84.2681 59.3819 197.616Z" fill="url(#paint1_linear_25138_29477)"/>
<path d="M356.731 70.3579C352.999 58.7503 349.074 46.5418 352.513 33.7097L363.254 -6.37711M356.731 70.3579L356.741 70.3904M356.731 70.3579C356.734 70.3687 356.738 70.3795 356.741 70.3904M319.604 -8.33027L308.81 31.9547C305.423 44.5922 295.469 55.6802 286.003 66.2235C285.707 66.553 285.412 66.8821 285.117 67.2106C277.072 76.1791 270.692 87.5332 267.332 100.075C259.005 131.152 272.368 157.751 297.18 159.486C321.991 161.221 348.856 137.435 357.183 106.358C360.585 93.6592 360.366 81.7084 357.224 71.896C357.087 71.4666 356.949 71.0365 356.81 70.6055M319.604 -8.33027C328.937 -8.75098 338.295 -8.6489 347.638 -7.99553C352.934 -7.62524 358.14 -7.08377 363.254 -6.37711M319.604 -8.33027C202.681 -3.05951 89.7533 84.2681 59.3819 197.616C26.5863 320.011 102.471 426.397 228.875 435.236C319.423 441.568 411.332 396.127 468.243 324.847M363.254 -6.37711C480.209 9.78503 548.553 112.357 517.131 229.625C514.354 239.989 510.887 250.136 506.789 260.022M468.243 324.847C433.171 322.884 399.263 318.631 360.286 311.696C344.479 328.032 321.804 338.149 299.239 336.988L205.137 332.144C167.89 330.227 145.214 299.191 154.832 263.294C164.451 227.398 202.619 200.616 239.504 203.883L332.694 212.136C357.575 214.339 375.232 230.031 380.059 251.16L506.789 260.022M468.243 324.847C484.052 305.047 497.161 283.254 506.789 260.022M356.741 70.3904L356.765 70.4655M356.741 70.3904C356.749 70.4154 356.757 70.4404 356.765 70.4655M356.765 70.4655L356.81 70.6055M356.765 70.4655C356.78 70.5122 356.795 70.5588 356.81 70.6055" stroke="url(#paint2_linear_25138_29477)" stroke-opacity="0.24" stroke-width="4"/>
<defs>
<radialGradient id="paint0_radial_25138_29477" cx="0" cy="0" r="1" gradientUnits="userSpaceOnUse" gradientTransform="translate(513.346 77.6418) rotate(108.113) scale(394.93 346.717)">
<stop stop-color="#F09741"/>
<stop offset="1" stop-color="#D17823"/>
</radialGradient>
<linearGradient id="paint1_linear_25138_29477" x1="450.463" y1="-69.4814" x2="287.517" y2="441.063" gradientUnits="userSpaceOnUse">
<stop stop-color="#FFB067"/>
<stop offset="1" stop-color="#FFC997"/>
</linearGradient>
<linearGradient id="paint2_linear_25138_29477" x1="347.638" y1="-7.99553" x2="316.217" y2="441.344" gradientUnits="userSpaceOnUse">
<stop stop-color="white"/>
<stop offset="1" stop-color="white" stop-opacity="0"/>
</linearGradient>
</defs>
</svg>
