<svg width="32" height="32" viewBox="0 0 32 32" fill="none" xmlns="http://www.w3.org/2000/svg">
<path d="M23.467 7.08036L15.9336 3.02703C15.1336 2.60036 14.187 2.60036 13.387 3.02703L5.86697 7.08036C5.3203 7.38703 4.97363 7.9737 4.97363 8.6137C4.97363 9.26703 5.30697 9.8537 5.86697 10.147L13.4003 14.2004C13.8003 14.4137 14.2403 14.5204 14.667 14.5204C15.0936 14.5204 15.547 14.4137 15.9336 14.2004L23.467 10.147C24.0136 9.8537 24.3603 9.26703 24.3603 8.6137C24.3603 7.9737 24.0136 7.38703 23.467 7.08036Z" fill="#FF7A00"/>
<path d="M12.1603 15.6154L5.16033 12.1221C4.61366 11.8421 4.00033 11.8821 3.48033 12.1887C2.97366 12.5087 2.66699 13.0554 2.66699 13.6554V20.2687C2.66699 21.4154 3.30699 22.4421 4.33366 22.9621L11.3337 26.4554C11.5737 26.5754 11.8403 26.6421 12.107 26.6421C12.4137 26.6421 12.7337 26.5487 13.0137 26.3887C13.5203 26.0687 13.827 25.5221 13.827 24.9221V18.3087C13.8137 17.1621 13.1737 16.1354 12.1603 15.6154Z" fill="#FF7A00"/>
<path d="M26.6672 13.6554V16.9354C26.0272 16.7487 25.3472 16.6687 24.6672 16.6687C22.8538 16.6687 21.0805 17.2954 19.6805 18.4154C17.7605 19.9221 16.6672 22.2021 16.6672 24.6687C16.6672 25.3221 16.7472 25.9754 16.9205 26.6021C16.7205 26.5754 16.5205 26.4954 16.3338 26.3754C15.8272 26.0687 15.5205 25.5221 15.5205 24.9221V18.3087C15.5205 17.1621 16.1605 16.1354 17.1738 15.6154L24.1738 12.1221C24.7205 11.8421 25.3338 11.8821 25.8538 12.1887C26.3605 12.5087 26.6672 13.0554 26.6672 13.6554Z" fill="#FF7A00"/>
<path d="M29.307 20.8914C28.2137 19.5447 26.547 18.6914 24.667 18.6914C23.2537 18.6914 21.947 19.1847 20.9203 20.0114C19.5337 21.1047 18.667 22.7981 18.667 24.6914C18.667 25.8114 18.987 26.8781 19.5337 27.7847C19.8937 28.3847 20.347 28.9047 20.8803 29.3314H20.8937C21.9203 30.1847 23.2403 30.6914 24.667 30.6914C26.187 30.6914 27.5603 30.1314 28.6137 29.1981C29.0803 28.7981 29.4803 28.3181 29.8003 27.7847C30.347 26.8781 30.667 25.8114 30.667 24.6914C30.667 23.2514 30.1603 21.9181 29.307 20.8914ZM27.6803 23.9447L24.4803 26.9047C24.2937 27.0781 24.0403 27.1714 23.8003 27.1714C23.547 27.1714 23.2937 27.0781 23.0937 26.8781L21.6137 25.3981C21.227 25.0114 21.227 24.3714 21.6137 23.9847C22.0003 23.5981 22.6403 23.5981 23.027 23.9847L23.827 24.7847L26.3203 22.4781C26.7203 22.1047 27.3603 22.1314 27.7337 22.5314C28.1203 22.9447 28.0937 23.5714 27.6803 23.9447Z" fill="#292D32"/>
</svg>
