<svg width="164" height="45" viewBox="0 0 164 45" fill="none" xmlns="http://www.w3.org/2000/svg">
<rect x="0.5" width="163" height="45" rx="8" fill="#FF7A00"/>
<path d="M25.7033 28V18.2H32.1433V19.74H27.4533V22.33H31.8633V23.8H27.4533V26.46H32.2833V28H25.7033ZM33.8895 28V20.58H35.2195L35.4295 21.49H35.4995C35.9195 20.79 36.5962 20.44 37.5295 20.44C38.3415 20.44 38.9995 20.7153 39.5035 21.266C40.0075 21.8167 40.2595 22.5447 40.2595 23.45V28H38.6495V23.59C38.6495 23.0673 38.5048 22.6567 38.2155 22.358C37.9355 22.0593 37.5668 21.91 37.1095 21.91C36.6335 21.91 36.2462 22.0733 35.9475 22.4C35.6488 22.7267 35.4995 23.1327 35.4995 23.618V28H33.8895ZM45.1606 30.8C43.3779 30.8 42.2579 30.0067 41.8006 28.42H43.4806C43.6859 29.0267 44.2459 29.33 45.1606 29.33C45.7299 29.33 46.1733 29.1947 46.4906 28.924C46.8173 28.6533 46.9806 28.2753 46.9806 27.79V26.6H46.9106C46.7146 26.8707 46.4299 27.104 46.0566 27.3C45.6833 27.4867 45.2679 27.58 44.8106 27.58C43.8773 27.58 43.1166 27.2673 42.5286 26.642C41.9499 26.0167 41.6606 25.1393 41.6606 24.01C41.6606 22.8807 41.9499 22.0033 42.5286 21.378C43.1166 20.7527 43.8773 20.44 44.8106 20.44C45.2773 20.44 45.6973 20.538 46.0706 20.734C46.4533 20.93 46.7566 21.182 46.9806 21.49H47.0506L47.2606 20.58H48.5906V27.79C48.5906 28.742 48.2966 29.4793 47.7086 30.002C47.1206 30.534 46.2713 30.8 45.1606 30.8ZM45.1046 26.11C45.6366 26.11 46.0799 25.9233 46.4346 25.55C46.7986 25.1673 46.9806 24.654 46.9806 24.01C46.9806 23.366 46.7986 22.8573 46.4346 22.484C46.0799 22.1013 45.6319 21.91 45.0906 21.91C44.5493 21.91 44.1106 22.0967 43.7746 22.47C43.4386 22.8433 43.2706 23.3567 43.2706 24.01C43.2706 24.6633 43.4386 25.1767 43.7746 25.55C44.1199 25.9233 44.5633 26.11 45.1046 26.11ZM53.4813 28V20.58H54.8113L55.0213 21.49H55.0913C55.5113 20.79 56.118 20.44 56.9113 20.44C57.434 20.44 57.8726 20.5613 58.2273 20.804C58.5913 21.0467 58.8526 21.3453 59.0113 21.7H59.0813C59.2306 21.3547 59.5106 21.0607 59.9213 20.818C60.3413 20.566 60.8313 20.44 61.3913 20.44C62.1753 20.44 62.8146 20.7107 63.3093 21.252C63.804 21.7933 64.0513 22.526 64.0513 23.45V28H62.4413V23.59C62.4413 23.058 62.2966 22.6473 62.0073 22.358C61.7273 22.0593 61.382 21.91 60.9713 21.91C60.57 21.91 60.234 22.064 59.9633 22.372C59.702 22.6707 59.5713 23.0767 59.5713 23.59V28H57.9613V23.59C57.9613 23.0487 57.826 22.6333 57.5553 22.344C57.2846 22.0547 56.93 21.91 56.4913 21.91C56.09 21.91 55.754 22.064 55.4833 22.372C55.222 22.6707 55.0913 23.0767 55.0913 23.59V28H53.4813ZM68.2496 26.74C68.8096 26.74 69.253 26.5953 69.5796 26.306C69.9063 26.0167 70.0696 25.6247 70.0696 25.13V24.78H68.2496C67.4096 24.78 66.9896 25.1067 66.9896 25.76C66.9896 26.0493 67.097 26.2873 67.3116 26.474C67.5263 26.6513 67.839 26.74 68.2496 26.74ZM67.8996 28.14C67.1436 28.14 66.5323 27.9253 66.0656 27.496C65.6083 27.0573 65.3796 26.502 65.3796 25.83C65.3796 25.1673 65.627 24.6167 66.1216 24.178C66.6163 23.7393 67.3023 23.52 68.1796 23.52H70.0696V23.17C70.0696 22.75 69.939 22.4233 69.6776 22.19C69.4163 21.9567 69.057 21.84 68.5996 21.84C68.245 21.84 67.951 21.924 67.7176 22.092C67.4936 22.2507 67.3443 22.4467 67.2696 22.68H65.6176C65.7856 22.0173 66.131 21.4807 66.6536 21.07C67.1763 20.65 67.825 20.44 68.5996 20.44C69.5703 20.44 70.3263 20.6827 70.8676 21.168C71.409 21.6533 71.6796 22.3207 71.6796 23.17V28H70.2796L70.1396 27.09H70.0696C69.911 27.37 69.6356 27.6173 69.2436 27.832C68.861 28.0373 68.413 28.14 67.8996 28.14ZM76.0186 28.14C75.1412 28.14 74.4319 27.93 73.8906 27.51C73.3586 27.09 73.0179 26.53 72.8686 25.83H74.6186C74.6932 26.082 74.8519 26.2873 75.0946 26.446C75.3372 26.5953 75.6452 26.67 76.0186 26.67C76.9519 26.67 77.4186 26.4133 77.4186 25.9C77.4186 25.648 77.2692 25.4567 76.9706 25.326C76.6812 25.1953 76.3266 25.0927 75.9066 25.018C75.4959 24.934 75.0806 24.8313 74.6606 24.71C74.2406 24.5793 73.8812 24.3413 73.5826 23.996C73.2932 23.6413 73.1486 23.1793 73.1486 22.61C73.1486 21.9847 73.3959 21.4667 73.8906 21.056C74.3852 20.6453 75.0712 20.44 75.9486 20.44C76.8259 20.44 77.5212 20.636 78.0346 21.028C78.5479 21.42 78.8792 21.9473 79.0286 22.61H77.2786C77.0919 22.1433 76.6486 21.91 75.9486 21.91C75.2019 21.91 74.8286 22.1433 74.8286 22.61C74.8286 22.8247 74.9312 23.002 75.1366 23.142C75.3512 23.2727 75.6172 23.366 75.9346 23.422C76.2519 23.4687 76.5926 23.548 76.9566 23.66C77.3299 23.7627 77.6752 23.884 77.9926 24.024C78.3099 24.164 78.5712 24.3973 78.7766 24.724C78.9912 25.0413 79.0986 25.4333 79.0986 25.9C79.0986 26.5627 78.8372 27.104 78.3146 27.524C77.7919 27.9347 77.0266 28.14 76.0186 28.14ZM80.4986 28V18.2H82.1086V21.42H82.1786C82.6172 20.7667 83.2706 20.44 84.1386 20.44C84.9506 20.44 85.6086 20.7153 86.1126 21.266C86.6166 21.8167 86.8686 22.5447 86.8686 23.45V28H85.2586V23.59C85.2586 23.0673 85.1139 22.6567 84.8246 22.358C84.5446 22.0593 84.1759 21.91 83.7186 21.91C83.2426 21.91 82.8552 22.0733 82.5566 22.4C82.2579 22.7267 82.1086 23.1327 82.1086 23.618V28H80.4986ZM88.688 28V18.2H90.298V21.42H90.368C90.8067 20.7667 91.46 20.44 92.328 20.44C93.14 20.44 93.798 20.7153 94.302 21.266C94.806 21.8167 95.058 22.5447 95.058 23.45V28H93.448V23.59C93.448 23.0673 93.3033 22.6567 93.014 22.358C92.734 22.0593 92.3653 21.91 91.908 21.91C91.432 21.91 91.0447 22.0733 90.746 22.4C90.4473 22.7267 90.298 23.1327 90.298 23.618V28H88.688ZM99.5375 28.14C98.7255 28.14 98.0675 27.8647 97.5635 27.314C97.0595 26.7633 96.8075 26.0353 96.8075 25.13V20.58H98.4175V24.99C98.4175 25.5127 98.5575 25.9233 98.8375 26.222C99.1268 26.5207 99.5001 26.67 99.9575 26.67C100.433 26.67 100.821 26.5067 101.119 26.18C101.418 25.8533 101.567 25.4473 101.567 24.962V20.58H103.177V28H101.847L101.637 27.09H101.567C101.147 27.79 100.471 28.14 99.5375 28.14ZM104.997 28V20.58H106.327L106.537 21.49H106.607C107.008 20.8833 107.615 20.58 108.427 20.58H109.337V22.12H108.567C107.97 22.12 107.494 22.2833 107.139 22.61C106.784 22.9367 106.607 23.38 106.607 23.94V28H104.997ZM115.764 28C115.102 28 114.584 27.8227 114.21 27.468C113.846 27.104 113.664 26.6047 113.664 25.97V22.05H112.474V20.58H113.664L113.874 18.62H115.274V20.58H117.094V22.05H115.274V25.76C115.274 25.9747 115.344 26.1567 115.484 26.306C115.624 26.4553 115.811 26.53 116.044 26.53H117.094V28H115.764ZM121.009 26.74C121.569 26.74 122.013 26.5953 122.339 26.306C122.666 26.0167 122.829 25.6247 122.829 25.13V24.78H121.009C120.169 24.78 119.749 25.1067 119.749 25.76C119.749 26.0493 119.857 26.2873 120.071 26.474C120.286 26.6513 120.599 26.74 121.009 26.74ZM120.659 28.14C119.903 28.14 119.292 27.9253 118.825 27.496C118.368 27.0573 118.139 26.502 118.139 25.83C118.139 25.1673 118.387 24.6167 118.881 24.178C119.376 23.7393 120.062 23.52 120.939 23.52H122.829V23.17C122.829 22.75 122.699 22.4233 122.437 22.19C122.176 21.9567 121.817 21.84 121.359 21.84C121.005 21.84 120.711 21.924 120.477 22.092C120.253 22.2507 120.104 22.4467 120.029 22.68H118.377C118.545 22.0173 118.891 21.4807 119.413 21.07C119.936 20.65 120.585 20.44 121.359 20.44C122.33 20.44 123.086 20.6827 123.627 21.168C124.169 21.6533 124.439 22.3207 124.439 23.17V28H123.039L122.899 27.09H122.829C122.671 27.37 122.395 27.6173 122.003 27.832C121.621 28.0373 121.173 28.14 120.659 28.14ZM126.188 28V20.58H127.518L127.728 21.49H127.798C128.2 20.8833 128.806 20.58 129.618 20.58H130.528V22.12H129.758C129.161 22.12 128.685 22.2833 128.33 22.61C127.976 22.9367 127.798 23.38 127.798 23.94V28H126.188ZM131.643 28V20.58H133.253V28H131.643ZM132.441 19.74C132.152 19.74 131.909 19.6467 131.713 19.46C131.527 19.2733 131.433 19.04 131.433 18.76C131.433 18.48 131.527 18.2467 131.713 18.06C131.909 17.8733 132.152 17.78 132.441 17.78C132.74 17.78 132.983 17.8733 133.169 18.06C133.365 18.2467 133.463 18.48 133.463 18.76C133.463 19.04 133.365 19.2733 133.169 19.46C132.983 19.6467 132.74 19.74 132.441 19.74ZM135.635 28V22.05H134.445V20.58H135.635V19.95C135.635 19.3153 135.822 18.8207 136.195 18.466C136.578 18.102 137.114 17.92 137.805 17.92H139.065V19.39H138.015C137.782 19.39 137.595 19.4647 137.455 19.614C137.315 19.7633 137.245 19.9453 137.245 20.16V20.58H139.065V22.05H137.245V28H135.635Z" fill="white"/>
</svg>
