<svg width="120" height="40" viewBox="0 0 120 40" fill="none" xmlns="http://www.w3.org/2000/svg">
<g clip-path="url(#clip0_25138_29381)">
<path d="M113 0H7C3.13401 0 0 3.13401 0 7V33C0 36.866 3.13401 40 7 40H113C116.866 40 120 36.866 120 33V7C120 3.13401 116.866 0 113 0Z" fill="black"/>
<path fill-rule="evenodd" clip-rule="evenodd" d="M36.7383 11.2534H37.5361C37.6735 11.2705 37.8129 11.259 37.9455 11.2195C38.0782 11.1801 38.2013 11.1136 38.307 11.0242C38.4127 10.9349 38.4987 10.8246 38.5596 10.7003C38.6206 10.576 38.6552 10.4405 38.6611 10.3022C38.6611 9.75193 38.2471 9.39646 37.5449 9.39646C37.4042 9.3768 37.261 9.38553 37.1237 9.42214C36.9864 9.45875 36.8579 9.52249 36.7456 9.60961C36.6334 9.69672 36.5397 9.80544 36.4702 9.92935C36.4007 10.0533 36.3567 10.1898 36.3408 10.331H35.4648C35.4799 10.0747 35.5476 9.82428 35.6636 9.59527C35.7797 9.36626 35.9417 9.16359 36.1394 8.99989C36.3372 8.83618 36.5666 8.71494 36.8133 8.64372C37.0599 8.5725 37.3186 8.55282 37.5732 8.58591C38.748 8.58591 39.5752 9.24362 39.5752 10.1904C39.578 10.5076 39.4719 10.8161 39.2746 11.0645C39.0773 11.3129 38.8008 11.486 38.4912 11.5551V11.6255C38.8582 11.6417 39.2038 11.8027 39.4525 12.073C39.7012 12.3434 39.8328 12.7013 39.8184 13.0683C39.7912 13.3322 39.7116 13.588 39.5843 13.8208C39.457 14.0535 39.2845 14.2585 39.077 14.4237C38.8694 14.5889 38.631 14.7111 38.3756 14.7829C38.1202 14.8548 37.8531 14.875 37.5898 14.8423C37.326 14.8782 37.0577 14.8607 36.8008 14.7907C36.5439 14.7208 36.3037 14.5998 36.0946 14.4351C35.8854 14.2703 35.7116 14.0651 35.5834 13.8317C35.4553 13.5983 35.3754 13.3415 35.3486 13.0766H36.2383C36.292 13.6474 36.8164 14.0156 37.5898 14.0156C38.3633 14.0156 38.8682 13.6021 38.8682 13.0191C38.8682 12.4277 38.3926 12.0635 37.5615 12.0635H36.7383V11.2534ZM23.1521 8.71875C23.2489 9.98298 22.8491 11.2352 22.0376 12.2094C21.649 12.6927 21.1558 13.0815 20.5951 13.3466C20.0344 13.6117 19.4209 13.7461 18.8008 13.7397C18.7612 13.1318 18.8419 12.522 19.0381 11.9452C19.2344 11.3685 19.5424 10.836 19.9445 10.3784C20.767 9.44153 21.9123 8.84897 23.1521 8.71875ZM25.4135 17.9213C25.0014 18.6473 24.7797 19.4657 24.769 20.3003C24.77 21.2392 25.0474 22.157 25.5665 22.9393C26.0856 23.7216 26.8235 24.3338 27.6882 24.6995C27.3483 25.8039 26.8358 26.8476 26.1698 27.792C25.2754 29.1299 24.3377 30.437 22.8493 30.4611C22.1414 30.4775 21.6636 30.2739 21.1657 30.0618C20.6464 29.8406 20.1052 29.61 19.2583 29.61C18.3602 29.61 17.7947 29.848 17.2494 30.0775C16.7782 30.2758 16.3219 30.4679 15.6789 30.4945C14.2615 30.547 13.1782 29.0666 12.2513 27.7412C10.3987 25.0346 8.95605 20.1136 10.8901 16.7651C11.3365 15.9629 11.9832 15.2899 12.7671 14.8118C13.551 14.3338 14.4453 14.0669 15.363 14.0373C16.1669 14.0207 16.9383 14.3306 17.6147 14.6023C18.1319 14.81 18.5935 14.9954 18.9715 14.9954C19.3038 14.9954 19.7525 14.8173 20.2755 14.6098C21.0992 14.2828 22.1072 13.8828 23.1344 13.9906C23.9216 14.0152 24.6922 14.2231 25.385 14.5976C26.0779 14.9722 26.6738 15.5031 27.1256 16.1483C26.4145 16.5854 25.8255 17.1954 25.4135 17.9213ZM42.3027 27.1397H37.5693L36.4326 30.4961H34.4277L38.9111 18.0781H40.9941L45.4775 30.4961H43.4385L42.3027 27.1397ZM38.0596 25.5908H41.8116L39.962 20.1436H39.9102L38.0596 25.5908ZM51.3809 30.5925C53.6534 30.5925 55.1592 28.7849 55.1592 25.9714C55.1592 23.1657 53.6445 21.3493 51.3467 21.3493C50.7664 21.3306 50.1918 21.4696 49.6842 21.7514C49.1766 22.0333 48.7549 22.4474 48.4639 22.9499H48.4297V21.4441H46.6309V33.4929H48.4893V29.0085H48.5323C48.8104 29.5134 49.2252 29.9297 49.7289 30.2099C50.2327 30.49 50.8052 30.6226 51.3809 30.5925ZM50.8565 22.9333C52.3018 22.9333 53.2491 24.1384 53.2491 25.9714C53.2491 27.821 52.3018 29.0173 50.8565 29.0173C49.4365 29.0173 48.4815 27.7956 48.4815 25.9714C48.4815 24.1638 49.4365 22.9333 50.8565 22.9333ZM65.1241 25.9714C65.1241 28.7849 63.6182 30.5925 61.3457 30.5925C60.7701 30.6226 60.1976 30.49 59.6938 30.2099C59.19 29.9297 58.7753 29.5134 58.4971 29.0085H58.4541V33.4929H56.5957V21.444H58.3945V22.9499H58.4287C58.7197 22.4474 59.1414 22.0333 59.649 21.7514C60.1567 21.4696 60.7312 21.3306 61.3115 21.3493C63.6094 21.3493 65.1241 23.1657 65.1241 25.9714ZM63.2139 25.9714C63.2139 24.1384 62.2666 22.9333 60.8213 22.9333C59.4014 22.9333 58.4463 24.1638 58.4463 25.9714C58.4463 27.7956 59.4014 29.0173 60.8213 29.0173C62.2666 29.0173 63.2139 27.821 63.2139 25.9714ZM74.6787 29.0762C73.044 29.0762 71.8477 28.2676 71.71 27.0362L69.8076 27.0361C69.9277 29.2822 71.7871 30.7031 74.541 30.7031C77.4844 30.7031 79.335 29.248 79.335 26.9248C79.335 25.1084 78.2764 24.0849 75.7285 23.4824L74.3604 23.1465C72.7598 22.751 72.1055 22.2344 72.1055 21.3565C72.1055 20.2549 73.1299 19.4981 74.627 19.4981C76.124 19.4981 77.1485 20.2461 77.2607 21.4854H79.1367C79.0762 19.3428 77.2774 17.8711 74.6534 17.8711C72.002 17.8711 70.1348 19.3428 70.1348 21.4854C70.1348 23.2158 71.1934 24.2822 73.4737 24.833L75.083 25.2207C76.6924 25.6162 77.3721 26.1934 77.3721 27.1572C77.3721 28.2676 76.2451 29.0762 74.6787 29.0762ZM83.3467 19.3008V21.4434H85.0684V22.915H83.3467V27.9062C83.3467 28.6816 83.6914 29.043 84.4482 29.043C84.6526 29.0394 84.8567 29.0251 85.0596 29V30.4629C84.7193 30.5264 84.3734 30.5552 84.0273 30.5488C82.1943 30.5488 81.4795 29.8603 81.4795 28.1045V22.915H80.1631V21.4434H81.4795V19.3008H83.3467ZM90.3594 21.332C87.7432 21.332 86.0654 23.1221 86.0654 25.9707C86.0654 28.8271 87.7265 30.6094 90.3594 30.6094C92.9932 30.6094 94.6543 28.8272 94.6543 25.9707C94.6543 23.122 92.9844 21.332 90.3594 21.332ZM90.3594 22.8633C91.8652 22.8633 92.7607 24.0166 92.7607 25.9707C92.7607 27.9326 91.8652 29.0772 90.3594 29.0772C88.8535 29.0772 87.959 27.9326 87.959 25.9707C87.959 24.0254 88.8535 22.8633 90.3594 22.8633ZM96.1865 21.444H97.959V22.985H98.002C98.1219 22.5037 98.4039 22.0784 98.8005 21.7805C99.197 21.4826 99.6841 21.3303 100.18 21.3492C100.394 21.3485 100.607 21.3717 100.816 21.4186V23.1569C100.546 23.0742 100.264 23.0363 99.9814 23.0445C99.7115 23.0336 99.4423 23.0812 99.1925 23.1841C98.9426 23.287 98.718 23.4427 98.534 23.6406C98.3501 23.8385 98.2111 24.0738 98.1267 24.3305C98.0422 24.5872 98.0144 24.8591 98.0449 25.1276V30.4977H96.1865V21.444ZM105.486 30.6094C107.534 30.6094 109.135 29.4814 109.385 27.8379H107.62C107.455 28.247 107.163 28.5919 106.786 28.8213C106.409 29.0508 105.968 29.1525 105.529 29.1113C105.195 29.1236 104.862 29.0647 104.552 28.9384C104.242 28.8121 103.963 28.6213 103.733 28.3787C103.502 28.1362 103.326 27.8474 103.216 27.5316C103.106 27.2157 103.064 26.8801 103.094 26.5469V26.4346H109.488V25.7978C109.488 23.0527 107.913 21.332 105.408 21.332C102.861 21.332 101.218 23.1738 101.218 26.0137C101.218 28.8447 102.853 30.6094 105.486 30.6094ZM107.629 25.1357H103.103C103.102 24.8331 103.161 24.5333 103.277 24.2537C103.392 23.974 103.562 23.72 103.777 23.5064C103.991 23.2928 104.245 23.1237 104.526 23.009C104.806 22.8942 105.106 22.8361 105.408 22.8379C105.708 22.8314 106.006 22.8871 106.284 23.0013C106.561 23.1155 106.812 23.2858 107.021 23.5016C107.229 23.7174 107.391 23.9739 107.495 24.2551C107.6 24.5363 107.646 24.8361 107.629 25.1357ZM42.5039 12.0815C41.4336 12.1479 40.8291 12.6152 40.8291 13.4258C40.8298 13.6158 40.8704 13.8036 40.9482 13.977C41.0259 14.1504 41.1392 14.3056 41.2806 14.4326C41.422 14.5596 41.5885 14.6555 41.7692 14.7142C41.95 14.7729 42.141 14.7931 42.3301 14.7734C42.5979 14.7858 42.8643 14.7269 43.1019 14.6027C43.3395 14.4784 43.5399 14.2934 43.6826 14.0664H43.7529V14.6992H44.6094V11.6226C44.6094 10.6714 43.9727 10.1094 42.8438 10.1094C41.8223 10.1094 41.0938 10.6055 41.0029 11.3789H41.8633C41.9629 11.0605 42.3057 10.8784 42.8018 10.8784C43.4102 10.8784 43.7236 11.147 43.7236 11.6226V12.0112L42.5039 12.0815ZM43.7236 12.6645V13.041C43.714 13.1831 43.6759 13.3217 43.6116 13.4487C43.5473 13.5758 43.4581 13.6885 43.3493 13.7804C43.2405 13.8722 43.1144 13.9412 42.9784 13.9833C42.8423 14.0254 42.6993 14.0397 42.5576 14.0254C42.0742 14.0254 41.7226 13.7895 41.7226 13.3843C41.7226 12.9873 42.0039 12.7764 42.624 12.7349L43.7236 12.6645ZM46.9678 10.9434V14.6982H46.0791V10.1953H49.044V10.9433L46.9678 10.9434ZM52.5693 14.7734C53.7061 14.7734 54.4297 13.8764 54.4297 12.4458C54.4297 11.0146 53.7061 10.1215 52.5606 10.1216C52.2723 10.1145 51.9877 10.1872 51.7381 10.3317C51.4886 10.4762 51.2838 10.6869 51.1465 10.9404H51.0801V10.1962H50.2246V16.1962H51.1133V14.017H51.1836C51.3185 14.262 51.5206 14.4634 51.7661 14.5974C52.0116 14.7314 52.2903 14.7925 52.5693 14.7734ZM52.3125 10.9199C53.0654 10.9199 53.5156 11.4946 53.5156 12.4458C53.5156 13.4008 53.0654 13.9755 52.3086 13.9755C51.5645 13.9755 51.0967 13.3881 51.0967 12.4497C51.0967 11.5068 51.5645 10.9199 52.3125 10.9199ZM55.6133 16.311V15.5459C55.7095 15.5581 55.8064 15.5637 55.9033 15.5625C56.0927 15.5765 56.2805 15.5201 56.4308 15.4042C56.5811 15.2882 56.6833 15.1208 56.7178 14.9341L56.7842 14.7148L55.1543 10.1953H56.1221L57.251 13.772H57.3213L58.4463 10.1953H59.3887L57.71 14.8843C57.3252 15.98 56.8995 16.3316 55.9815 16.3316C55.9073 16.3315 55.6963 16.3232 55.6133 16.311ZM60.9658 13.4205H60.0811C60.1631 14.3302 60.9619 14.7809 61.9453 14.7809C63.0576 14.7809 63.7861 14.2145 63.7861 13.3585C63.7889 13.1111 63.7007 12.8712 63.5384 12.6844C63.376 12.4977 63.1507 12.377 62.9053 12.3454V12.275C63.1114 12.226 63.2945 12.1077 63.4239 11.9399C63.5533 11.7721 63.6212 11.565 63.6162 11.3532C63.6162 10.5924 63.0039 10.1085 61.9336 10.1085C61.524 10.0521 61.1086 10.1586 60.7768 10.4053C60.445 10.6519 60.2232 11.0189 60.1592 11.4274H61.0156C61.0732 11.0719 61.4365 10.861 61.9336 10.861C62.4795 10.861 62.7441 11.1134 62.7441 11.444C62.7441 11.8204 62.4707 12.027 61.9336 12.027H61.2715V12.7174H61.9453C62.5742 12.7174 62.9004 12.9244 62.9004 13.3585C62.9004 13.7638 62.5371 14.0245 61.9453 14.0245C61.4248 14.0245 61.0527 13.8175 60.9658 13.4205ZM65.0664 14.6982V10.1953H65.9473V13.2925H66.0176L68.0928 10.1953H68.9736V14.6983H68.0928V11.5845H68.0264L65.9473 14.6983L65.0664 14.6982ZM72.4073 10.9433H73.8253V10.1953H70.0996V10.9433H71.5176V14.6982H72.4073V10.9433ZM78.613 13.4835C78.4919 13.895 78.23 14.2509 77.8732 14.489C77.5164 14.7271 77.0873 14.8323 76.6608 14.7862C76.3641 14.794 76.0693 14.7372 75.7968 14.6197C75.5243 14.5022 75.2807 14.3267 75.0827 14.1056C74.8848 13.8845 74.7374 13.6229 74.6507 13.3391C74.564 13.0553 74.5402 12.756 74.5807 12.462C74.5412 12.1671 74.5655 11.8672 74.652 11.5825C74.7385 11.2978 74.8851 11.0351 75.082 10.812C75.2789 10.5889 75.5214 10.4107 75.7931 10.2895C76.0648 10.1683 76.3594 10.1069 76.6569 10.1095C77.9098 10.1095 78.6667 10.9655 78.6667 12.3795V12.6896H75.487V12.7394C75.4729 12.9046 75.4936 13.071 75.5476 13.2279C75.6017 13.3847 75.688 13.5285 75.8009 13.6499C75.9138 13.7714 76.0509 13.868 76.2034 13.9333C76.3559 13.9986 76.5203 14.0314 76.6862 14.0294C76.8986 14.0548 77.1138 14.0164 77.3044 13.9192C77.495 13.822 77.6524 13.6703 77.7565 13.4835H78.613ZM75.487 12.0323H77.7604C77.7716 11.8813 77.7511 11.7295 77.7002 11.5869C77.6494 11.4442 77.5692 11.3138 77.4649 11.2039C77.3606 11.0941 77.2345 11.0072 77.0947 10.949C76.9549 10.8908 76.8044 10.8624 76.653 10.8658C76.4992 10.8637 76.3466 10.8925 76.2042 10.9504C76.0617 11.0082 75.9324 11.0941 75.8237 11.2028C75.715 11.3116 75.6292 11.441 75.5713 11.5835C75.5135 11.726 75.4848 11.8786 75.487 12.0323ZM84.4111 10.1953H82.3809V14.6982H84.4316C85.4199 14.6982 86.0107 14.1855 86.0107 13.3999C86.0139 13.1364 85.9158 12.8818 85.7366 12.6886C85.5574 12.4954 85.3108 12.3784 85.0479 12.3618V12.2915C85.2644 12.2441 85.4582 12.1238 85.5967 11.9506C85.7351 11.7775 85.81 11.562 85.8086 11.3403C85.8086 10.6416 85.292 10.1953 84.4111 10.1953ZM83.2617 12.0434V10.8774H84.2412C84.7129 10.8774 84.9365 11.105 84.9365 11.456C84.9365 11.8369 84.6797 12.0434 84.1426 12.0434H83.2617ZM83.2617 14.0161V12.6968H84.2041C84.8038 12.6968 85.1221 12.9077 85.1221 13.3584C85.1221 13.7842 84.8409 14.0161 84.3155 14.0161H83.2617Z" fill="white"/>
</g>
<defs>
<clipPath id="clip0_25138_29381">
<rect width="120" height="40" fill="white"/>
</clipPath>
</defs>
</svg>
