<svg width="135" height="40" viewBox="0 0 135 40" fill="none" xmlns="http://www.w3.org/2000/svg">
<g clip-path="url(#clip0_25138_29384)">
<mask id="mask0_25138_29384" style="mask-type:luminance" maskUnits="userSpaceOnUse" x="0" y="0" width="135" height="40">
<path d="M135 0H0V40H135V0Z" fill="white"/>
</mask>
<g mask="url(#mask0_25138_29384)">
<path d="M128 0H7C3.13401 0 0 3.13401 0 7V33C0 36.866 3.13401 40 7 40H128C131.866 40 135 36.866 135 33V7C135 3.13401 131.866 0 128 0Z" fill="black"/>
<path d="M20.7193 19.4202L10.0693 30.7202C10.3993 31.9502 11.5193 32.8502 12.8493 32.8502C13.3793 32.8502 13.8793 32.7102 14.3093 32.4502L14.3393 32.4302L26.3193 25.5202L20.7093 19.4102L20.7193 19.4202Z" fill="#EA4335"/>
<path d="M31.4895 17.4983H31.4795L26.3095 14.4883L20.4795 19.6783L26.3295 25.5283L31.4795 22.5583C32.3795 22.0683 32.9895 21.1183 32.9895 20.0283C32.9895 18.9383 32.3895 17.9883 31.4895 17.5083V17.4983Z" fill="#FBBC04"/>
<path d="M10.0697 9.28125C10.0097 9.52125 9.96973 9.76125 9.96973 10.0213V29.9813C9.96973 30.2413 9.99973 30.4813 10.0697 30.7213L21.0797 19.7113L10.0697 9.28125Z" fill="#4285F4"/>
<path d="M20.7993 20.0006L26.3093 14.4906L14.3393 7.55062C13.9093 7.29062 13.3993 7.14062 12.8493 7.14062C11.5193 7.14062 10.3993 8.05062 10.0693 9.27062L20.7993 19.9906V20.0006Z" fill="#34A853"/>
<path fill-rule="evenodd" clip-rule="evenodd" d="M53.8105 12.2936C54.4175 11.6716 54.7235 10.8986 54.7225 9.99963C54.7235 9.10563 54.4165 8.33463 53.8065 7.70963C53.1975 7.08163 52.4345 6.76463 51.5385 6.76563C50.6395 6.76463 49.8735 7.08063 49.2675 7.70563C48.6595 8.32863 48.3545 9.10063 48.3555 9.99963C48.3545 10.8986 48.6605 11.6716 49.2685 12.2936C49.8745 12.9196 50.6395 13.2346 51.5385 13.2336C52.4385 13.2346 53.2045 12.9196 53.8105 12.2936ZM51.5385 12.2966C50.9195 12.2946 50.4085 12.0836 49.9805 11.6516C49.5555 11.2206 49.3435 10.6766 49.3435 9.99963C49.3435 9.32263 49.5555 8.77863 49.9805 8.34763C50.4085 7.91563 50.9195 7.70463 51.5385 7.70363C52.1585 7.70463 52.6705 7.91563 53.0975 8.34763C53.5225 8.77963 53.7345 9.32263 53.7355 9.99963C53.7345 10.6766 53.5225 11.2196 53.0975 11.6516C52.6705 12.0836 52.1585 12.2956 51.5385 12.2966Z" fill="white"/>
<path fill-rule="evenodd" clip-rule="evenodd" d="M42.5395 13.1024V14.3754H41.6025V12.1654H42.2509C42.2418 12.1735 42.2327 12.1815 42.2235 12.1894L42.2875 12.2642L42.2885 12.2639V12.1654H42.2509C42.7111 11.7519 42.9515 11.0495 42.9515 10.0344V6.90234H47.1575V12.1654H47.8275V14.3754H46.8895V13.1024H42.5395ZM43.9225 9.96934V7.83934H46.1855V12.1654H43.4333C43.7615 11.6028 43.9225 10.8963 43.9225 10.0514V9.96934Z" fill="white"/>
<path fill-rule="evenodd" clip-rule="evenodd" d="M59.8951 12.9346C59.4681 13.1346 59.0031 13.2336 58.5041 13.2336C57.5991 13.2346 56.8271 12.9236 56.2131 12.3076C55.5961 11.6926 55.2861 10.9156 55.2871 9.99964C55.2861 9.08364 55.5961 8.30664 56.2131 7.69164C56.8271 7.07564 57.5991 6.76464 58.5041 6.76563C59.4321 6.76364 60.2031 7.10564 60.7841 7.78064L60.8461 7.85164L60.7781 7.91764L60.1621 8.51364L60.0931 8.42864C59.7031 7.94364 59.1841 7.70464 58.5041 7.70364C57.8721 7.70464 57.3511 7.91264 56.9191 8.33664C56.4891 8.75964 56.2751 9.30564 56.2741 9.99964C56.2751 10.6946 56.4891 11.2406 56.9191 11.6626C57.3511 12.0866 57.8721 12.2956 58.5041 12.2966C59.1971 12.2946 59.7781 12.0216 60.2731 11.4586L60.3431 11.3786L61.0191 12.0546L60.9611 12.1246C60.6771 12.4666 60.3211 12.7366 59.8951 12.9346ZM60.4186 11.5959L60.4231 11.5906L60.3481 11.5246L60.4186 11.5959ZM60.3428 11.53L60.2771 11.5956L60.2804 11.5989C60.3013 11.5764 60.3222 11.5534 60.3428 11.53ZM60.1066 8.28928L60.1021 8.29364L60.1673 8.36163C60.1474 8.33691 60.1272 8.31279 60.1066 8.28928ZM60.1711 8.36564L60.2491 8.30364L60.2427 8.29566L60.1711 8.36564Z" fill="white"/>
<path fill-rule="evenodd" clip-rule="evenodd" d="M64.1021 7.83544V13.0984H63.1311V7.83544H61.4551V6.89844H65.7781V7.83544H64.1021Z" fill="white"/>
<path fill-rule="evenodd" clip-rule="evenodd" d="M70 6.89844L68.5999 10.2265L67.167 6.89844H66.04L68.105 11.4314L67.906 11.8674C67.827 12.0434 67.742 12.1564 67.667 12.2094C67.594 12.2614 67.476 12.2954 67.31 12.2954C67.188 12.2944 67.072 12.2634 66.957 12.1994L66.846 12.1364L66.586 13.0564L66.668 13.0904C66.89 13.1844 67.101 13.2325 67.302 13.2325C67.965 13.2354 68.474 12.8364 68.793 12.1004L68.792 12.1014L71.126 6.89844H70ZM66.9986 12.3326L67.004 12.3134L66.907 12.2864L66.858 12.3734L66.8798 12.3853L66.9073 12.288C66.9375 12.3048 66.9679 12.3197 66.9986 12.3326ZM70.9271 7.09844H70.971V7.00054L70.9271 7.09844ZM70.971 7.00054V6.99844L70.88 6.95744L70.861 7L70.971 7.00054Z" fill="white"/>
<path d="M72.7151 13.0984H71.7451V6.89844H76.2851V13.0984H75.3141V7.83544H72.7151V13.0984Z" fill="white"/>
<path d="M78.43 13.0984H77.459V6.89844H78.43V9.47044H81.23V6.89844H82.201V13.0984H81.23V10.3914H78.43V13.0984Z" fill="white"/>
<path fill-rule="evenodd" clip-rule="evenodd" d="M89.366 9.99963C89.367 10.8986 89.061 11.6716 88.454 12.2936C87.848 12.9196 87.082 13.2346 86.182 13.2336C85.283 13.2346 84.517 12.9196 83.912 12.2936C83.304 11.6716 82.999 10.8986 82.999 9.99963C82.999 9.10063 83.304 8.32863 83.912 7.70563C84.517 7.08063 85.282 6.76463 86.182 6.76563C87.078 6.76463 87.841 7.08163 88.45 7.70963C89.06 8.33463 89.367 9.10563 89.366 9.99963ZM84.5518 11.7223L84.624 11.6516L84.553 11.7216L84.5518 11.7223ZM84.624 11.6516C84.199 11.2206 83.988 10.6766 83.986 9.99963C83.988 9.32263 84.199 8.77863 84.624 8.34763C85.052 7.91563 85.563 7.70463 86.182 7.70363C86.802 7.70463 87.314 7.91563 87.741 8.34763C88.166 8.77963 88.378 9.32263 88.379 9.99963C88.378 10.6766 88.166 11.2196 87.741 11.6516C87.314 12.0836 86.802 12.2956 86.182 12.2966C85.563 12.2946 85.052 12.0836 84.624 11.6516Z" fill="white"/>
<path fill-rule="evenodd" clip-rule="evenodd" d="M95.7141 9.88763C95.7141 9.88763 96.1561 10.1612 96.3193 10.3724C96.5223 10.6344 96.6263 10.9454 96.6253 11.2894C96.6263 11.8054 96.4313 12.2464 96.0513 12.5864C95.6743 12.9264 95.2203 13.0994 94.7063 13.0985H92.3193V6.89844H94.5893C95.0803 6.89745 95.5153 7.06345 95.8753 7.38845C96.2393 7.71445 96.4253 8.13945 96.4243 8.63245C96.4243 8.93445 96.3443 9.20845 96.1843 9.44245C96.0611 9.62612 95.7141 9.88763 95.7141 9.88763ZM93.2893 12.1614H94.7403C95.0133 12.1594 95.2193 12.0704 95.3863 11.8844C95.5573 11.6934 95.6363 11.4924 95.6373 11.2714C95.6363 11.0524 95.5553 10.8564 95.3793 10.6654C95.2073 10.4834 94.9923 10.3924 94.7063 10.3914H93.2893V12.1614ZM93.2893 9.47045C93.797 9.47045 94.5893 9.47045 94.5893 9.47045C94.8583 9.46945 95.0573 9.38645 95.2153 9.21445C95.3773 9.03545 95.4523 8.85245 95.4533 8.64945C95.4523 8.44545 95.3793 8.26345 95.2223 8.08745C95.0703 7.91945 94.8803 7.83745 94.6233 7.83545H93.2893C93.2893 7.83545 93.2893 8.83194 93.2893 9.47045Z" fill="white"/>
<path d="M109.127 30.001H107.261V17.5H109.127V30.001Z" fill="white"/>
<path d="M121.929 27.42L124.068 22H126.143L121.013 33.789H119.066L120.964 29.575L117.635 22H119.645L121.865 27.42H121.929Z" fill="white"/>
<path fill-rule="evenodd" clip-rule="evenodd" d="M110.382 23.6445C110.961 22.3255 112.36 21.7305 113.711 21.7305C115.85 21.7305 117.506 22.9685 117.506 25.1885V29.9805H115.705V29.0155H115.641C115.206 29.6755 114.515 30.2385 113.26 30.2385C111.62 30.2385 110.156 29.1605 110.156 27.4875C110.156 25.6545 111.974 24.6735 113.759 24.6735C114.644 24.6735 115.367 24.9625 115.705 25.1555V25.0275C115.689 23.9975 114.708 23.4185 113.743 23.4185C113.051 23.4185 112.392 23.6445 112.038 24.3355L110.382 23.6445ZM112.022 27.5205C112.022 28.2765 112.874 28.5815 113.486 28.5815C114.563 28.5815 115.56 27.7615 115.705 26.6035C115.206 26.3625 114.821 26.1855 114 26.1855C113.084 26.1855 112.022 26.5555 112.022 27.5205Z" fill="white"/>
<path fill-rule="evenodd" clip-rule="evenodd" d="M97.6602 17.5H102.131C104.199 17.5 106.232 18.997 106.232 21.382C106.232 23.767 104.199 25.265 102.131 25.265H99.5252V30.001H97.6602V17.5ZM99.5252 23.525H102.179C103.574 23.525 104.366 22.351 104.366 21.382C104.366 20.395 103.574 19.24 102.179 19.24H99.5252V23.525Z" fill="white"/>
<path fill-rule="evenodd" clip-rule="evenodd" d="M79.8287 22.7H79.8927V22.007H81.6657V29.644C81.6657 32.785 79.8127 34.074 77.6217 34.074C75.5597 34.074 74.3187 32.689 73.8517 31.561L75.4787 30.884C75.7687 31.577 76.4777 32.399 77.6217 32.399C79.0237 32.399 79.8927 31.529 79.8927 29.901V29.289H79.8287C79.4097 29.805 78.6047 30.256 77.5897 30.256C75.4627 30.256 73.5137 28.403 73.5137 26.019C73.5137 23.618 75.4627 21.75 77.5897 21.75C78.6047 21.75 79.4097 22.201 79.8287 22.7ZM75.3827 26.019C75.3827 27.501 76.4617 28.58 77.7507 28.58C79.0237 28.58 80.0217 27.501 80.0217 26.019C80.0217 24.521 79.0237 23.425 77.7507 23.425C76.4617 23.425 75.3827 24.521 75.3827 26.019Z" fill="white"/>
<path d="M84.8231 29.9981H82.9541V17.4961H84.8231V29.9981Z" fill="white"/>
<path fill-rule="evenodd" clip-rule="evenodd" d="M89.7366 21.75C91.9436 21.75 93.0236 23.506 93.3776 24.456L93.5706 24.94L87.8836 27.292C88.3186 28.145 88.9956 28.58 89.9456 28.58C90.8966 28.58 91.5576 28.113 92.0406 27.404L93.4906 28.371C93.0236 29.064 91.8956 30.256 89.9456 30.256C87.5296 30.256 85.7256 28.387 85.7256 26.003C85.7256 23.473 87.5456 21.75 89.7366 21.75ZM89.8006 23.393C88.8506 23.393 87.5296 24.231 87.5776 25.874L91.3796 24.295C91.1706 23.763 90.5426 23.393 89.8006 23.393Z" fill="white"/>
<path d="M48.0692 24.8609V23.0569H54.1422C54.2072 23.3789 54.2392 23.7649 54.2392 24.1839C54.2392 25.5379 53.8682 27.2129 52.6762 28.4049C51.5162 29.6139 50.0342 30.2579 48.0692 30.2579C44.4282 30.2579 41.3672 27.2939 41.3672 23.6529C41.3672 20.0119 44.4282 17.0469 48.0692 17.0469C50.0832 17.0469 51.5162 17.8369 52.5962 18.8679L51.3232 20.1409C50.5502 19.4159 49.5032 18.8519 48.0692 18.8519C45.4112 18.8519 43.3322 20.9939 43.3322 23.6529C43.3322 26.3109 45.4112 28.4529 48.0692 28.4529C49.7922 28.4529 50.7752 27.7609 51.4042 27.1329C51.9192 26.6169 52.2572 25.8759 52.3862 24.8609H48.0692Z" fill="white"/>
<path fill-rule="evenodd" clip-rule="evenodd" d="M54.8779 26.003C54.8779 23.538 56.7949 21.75 59.1479 21.75C61.4999 21.75 63.4169 23.538 63.4169 26.003C63.4169 28.451 61.4999 30.256 59.1479 30.256C56.7949 30.256 54.8779 28.451 54.8779 26.003ZM56.7469 26.003C56.7469 27.517 57.8589 28.58 59.1479 28.58C60.4359 28.58 61.5479 27.517 61.5479 26.003C61.5479 24.472 60.4359 23.425 59.1479 23.425C57.8589 23.425 56.7469 24.472 56.7469 26.003Z" fill="white"/>
<path fill-rule="evenodd" clip-rule="evenodd" d="M64.1924 26.003C64.1924 23.538 66.1094 21.75 68.4614 21.75C70.8134 21.75 72.7304 23.538 72.7304 26.003C72.7304 28.451 70.8134 30.256 68.4614 30.256C66.1094 30.256 64.1924 28.451 64.1924 26.003ZM66.0604 26.003C66.0604 27.517 67.1724 28.58 68.4614 28.58C69.7504 28.58 70.8614 27.517 70.8614 26.003C70.8614 24.472 69.7504 23.425 68.4614 23.425C67.1724 23.425 66.0604 24.472 66.0604 26.003Z" fill="white"/>
</g>
</g>
<defs>
<clipPath id="clip0_25138_29384">
<rect width="135" height="40" fill="white"/>
</clipPath>
</defs>
</svg>
