<svg width="148" height="48" viewBox="0 0 148 48" fill="none" xmlns="http://www.w3.org/2000/svg">
<path d="M9.33133 0.00354838H129.561C130.946 0.00354838 132.168 0.574714 132.861 1.67448L145.048 21.4418C145.985 22.9904 145.824 24.8635 144.477 26.4138L127.319 46.1812C126.382 47.2402 125.16 47.8929 123.771 47.8929H3.90385C1.50051 47.8929 -0.253665 46.018 0.0301249 43.6535L4.55834 4.23941C4.84568 1.8359 6.92267 0 9.32779 0H9.32956L9.33133 0.00354838Z" fill="#00C0C9"/>
<path d="M71.2824 13.3542L65.0426 27.559L61.8003 13.3542H55.3955L61.1014 33.9216L57.7775 40.6549H64.099L77.5222 13.3542H71.2806H71.2824ZM10.8564 40.6549H16.6032L17.5468 32.898C18.4496 33.5951 20.1328 34.3756 22.2666 34.3756C28.9179 34.3756 32.9814 28.5043 32.9814 22.1026C32.9814 16.6428 30.3954 12.8257 25.5514 12.8257C23.251 12.8257 21.158 13.5636 19.5581 14.8797L19.7621 13.3614H14.1803L10.8564 40.662V40.6567V40.6549ZM18.0399 28.8715L19.3134 18.7733C20.5443 17.7888 21.9402 17.3773 23.1711 17.4181C25.633 17.4571 26.9881 19.4296 26.9881 22.5089C26.9881 26.491 24.8952 29.8986 21.3638 29.8986C20.2552 29.8986 18.9835 29.5296 18.0399 28.8715ZM34.09 28.3393C34.0474 31.6635 36.7594 34.3756 40.9027 34.3756C43.8186 34.3756 45.9506 33.1446 47.1815 31.7894L46.935 33.8825H52.5168L53.8719 22.7589C54.5299 17.2583 52.7225 12.7831 45.6615 12.7831C42.7881 12.7831 39.2993 13.4412 37.4103 14.6722L36.8338 19.2698C38.3539 18.4468 41.3089 17.4464 44.0173 17.4464C47.2596 17.4464 48.4107 19.0642 48.2865 20.7901H44.8385C39.8296 20.7901 34.1237 22.7182 34.0829 28.343H34.0882L34.09 28.3393ZM39.8793 27.8853C39.8793 25.668 42.4653 24.8468 45.1311 24.8468H47.8396L47.4281 28.1709C46.2787 29.0738 44.2266 30.0175 42.5008 30.0175C40.9417 30.0175 39.8739 29.1553 39.8739 27.8818H39.8757L39.8793 27.8853ZM110.353 24.4778C110.272 29.6095 114.007 34.3703 121.641 34.3703C124.349 34.3703 126.65 33.8365 128.7 32.5629L129.112 27.7185C127.43 28.7456 124.883 29.4426 122.668 29.4426C119.752 29.4426 117.125 28.1691 116.389 25.2139H130.593C130.797 24.68 130.962 23.4065 130.962 22.1754C130.962 16.7582 127.964 12.8149 121.806 12.8149C115.648 12.8149 110.435 16.4691 110.353 24.4725V24.476V24.4778ZM116.428 21.7267C117.004 19.018 118.971 17.4144 121.394 17.4144C123.817 17.4144 125.13 18.7696 125.13 20.9461C125.13 21.1926 125.13 21.4801 125.091 21.7267H116.43H116.428ZM82.2012 33.879L84.0902 18.8549C85.3637 17.9928 86.7986 17.2957 88.0331 17.2957C89.6329 17.2957 90.4134 18.4877 90.1686 20.5382L88.5262 33.8807H94.3155L96.1229 19.3071L96.1619 18.8957C97.4354 18.0336 98.9129 17.2957 100.144 17.2957C101.744 17.2957 102.524 18.4877 102.279 20.5382L100.637 33.8807H106.426L108.234 19.3071C108.727 15.2434 106.632 12.7812 102.898 12.7812C100.312 12.7812 97.5613 14.2588 95.7149 15.614C94.9345 13.8065 93.2105 12.7812 90.7876 12.7812C88.3647 12.7812 86.0253 13.9733 84.1788 15.2044L84.4254 13.3577H79.0086L76.4225 33.8843H82.2118H82.2047L82.2012 33.879Z" fill="white"/>
</svg>
