<svg width="314" height="260" viewBox="0 0 314 260" fill="none" xmlns="http://www.w3.org/2000/svg">
<path d="M281.71 137.911C280.2 143.547 278.314 149.064 276.086 154.44C270.851 167.073 263.723 178.923 255.126 189.69C224.18 228.449 174.203 253.158 124.966 249.715C56.2324 244.909 14.9691 187.06 32.8022 120.506C49.3171 58.8716 110.723 11.3859 174.302 8.51989C179.376 8.29113 184.465 8.34663 189.546 8.70191C192.425 8.90326 195.256 9.19769 198.037 9.58195C261.633 18.3703 298.796 74.1454 281.71 137.911Z" fill="#FDA655"/>
<path fill-rule="evenodd" clip-rule="evenodd" d="M174.302 8.51989L168.432 30.4254C166.591 37.2973 161.178 43.3265 156.031 49.0596C155.87 49.2388 155.709 49.4177 155.549 49.5963C151.174 54.4731 147.705 60.647 145.878 67.4666C141.35 84.3651 148.616 98.8289 162.108 99.7723C175.6 100.716 190.208 87.7816 194.736 70.8831C196.586 63.9781 196.467 57.4797 194.758 52.1441C194.669 51.8659 194.58 51.5871 194.49 51.3077C192.461 44.9959 190.327 38.3574 192.196 31.3797L198.037 9.58195C195.256 9.19769 192.425 8.90326 189.546 8.70191C184.465 8.34663 179.376 8.29113 174.302 8.51989Z" fill="#1A1A1A"/>
<path fill-rule="evenodd" clip-rule="evenodd" d="M130.746 123.914C110.69 122.137 89.9348 136.7 84.7047 156.22C79.4745 175.739 91.8051 192.615 112.058 193.658L163.228 196.292C175.498 196.923 187.828 191.422 196.423 182.539C217.617 186.31 236.055 188.622 255.126 189.69C263.723 178.923 270.851 167.073 276.086 154.44L207.175 149.622C204.55 138.132 194.949 129.6 181.419 128.401L130.746 123.914Z" fill="#1A1A1A"/>
<path d="M281.71 137.911C280.2 143.547 278.314 149.064 276.086 154.44C270.851 167.073 263.723 178.923 255.126 189.69C224.18 228.449 174.203 253.158 124.966 249.715C56.2324 244.909 14.9691 187.06 32.8022 120.506C49.3171 58.8716 110.723 11.3859 174.302 8.51989C179.376 8.29113 184.465 8.34663 189.546 8.70191C192.425 8.90326 195.256 9.19769 198.037 9.58195C261.633 18.3703 298.796 74.1454 281.71 137.911Z" fill="#FDA655"/>
<path fill-rule="evenodd" clip-rule="evenodd" d="M174.302 8.51989L168.432 30.4254C166.591 37.2973 161.178 43.3265 156.031 49.0596C155.87 49.2388 155.709 49.4177 155.549 49.5963C151.174 54.4731 147.705 60.647 145.878 67.4666C141.35 84.3651 148.616 98.8289 162.108 99.7723C175.6 100.716 190.208 87.7816 194.736 70.8831C196.586 63.9781 196.467 57.4797 194.758 52.1441C194.669 51.8659 194.58 51.5871 194.49 51.3077C192.461 44.9959 190.327 38.3574 192.196 31.3797L198.037 9.58195C195.256 9.19769 192.425 8.90326 189.546 8.70191C184.465 8.34663 179.376 8.29113 174.302 8.51989Z" fill="#1A1A1A"/>
<path fill-rule="evenodd" clip-rule="evenodd" d="M130.746 123.914C110.69 122.137 89.9348 136.7 84.7047 156.22C79.4745 175.739 91.8051 192.615 112.058 193.658L163.228 196.292C175.498 196.923 187.828 191.422 196.423 182.539C217.617 186.31 236.055 188.622 255.126 189.69C263.723 178.923 270.851 167.073 276.086 154.44L207.175 149.622C204.55 138.132 194.949 129.6 181.419 128.401L130.746 123.914Z" fill="#1A1A1A"/>
<path d="M255.964 34.1309C291.989 56.6325 309.393 99.7221 296.657 147.251C295.147 152.887 293.262 158.404 291.034 163.78C285.798 176.413 278.67 188.263 270.074 199.03C239.127 237.789 189.15 262.498 139.914 259.055C120.266 257.681 102.864 251.973 88.444 242.967C52.4184 220.466 35.0139 177.376 47.7495 129.846C64.2644 68.2114 125.67 20.7258 189.249 17.8597C194.324 17.631 199.412 17.6865 204.493 18.0418C207.372 18.2431 210.204 18.5375 212.984 18.9218C229.178 21.1596 243.658 26.4439 255.964 34.1309Z" fill="#D17823"/>
<path fill-rule="evenodd" clip-rule="evenodd" d="M189.249 17.8597L183.379 39.7653C181.538 46.6371 176.125 52.6663 170.978 58.3994C170.817 58.5786 170.656 58.7575 170.496 58.9362C166.121 63.8129 162.652 69.9869 160.825 76.8065C157.322 89.8815 160.879 101.499 168.918 106.524C171.269 107.993 174.003 108.899 177.055 109.112C190.547 110.056 205.155 97.1215 209.683 80.223C211.533 73.318 211.414 66.8195 209.706 61.4839C209.617 61.2058 209.527 60.927 209.437 60.6475C207.408 54.3358 205.274 47.6972 207.144 40.7196L212.984 18.9218C210.204 18.5375 207.372 18.2431 204.493 18.0418C199.412 17.6865 194.324 17.631 189.249 17.8597Z" fill="#D17823"/>
<path fill-rule="evenodd" clip-rule="evenodd" d="M145.694 133.254C125.637 131.477 104.882 146.04 99.6519 165.559C95.9615 179.332 101.014 191.789 111.424 198.296C115.767 201.011 121.043 202.691 127.006 202.998L178.175 205.631C190.445 206.263 202.775 200.762 211.37 191.879C232.565 195.649 251.003 197.962 270.074 199.03C278.67 188.263 285.798 176.413 291.034 163.78L222.122 158.961C220.521 151.953 216.324 146.044 210.222 142.23C206.322 139.791 201.643 138.208 196.367 137.741L145.694 133.254Z" fill="#D17823"/>
<path d="M174.302 8.51953C110.723 11.3856 49.3171 58.8712 32.8022 120.506L47.7498 129.846C64.2647 68.2115 125.671 20.7258 189.249 17.8598L174.302 8.51953Z" fill="#D17823"/>
<path d="M32.8022 120.508C20.0666 168.038 37.4711 211.128 73.4967 233.629L88.411 242.949C52.408 220.441 35.0181 177.363 47.7498 129.848L32.8022 120.508Z" fill="#D17823"/>
<path d="M168.432 30.4251L174.302 8.51953L189.249 17.8598L183.38 39.7653L168.432 30.4251Z" fill="#D17823"/>
<path d="M155.549 49.5954L156.031 49.0586L170.978 58.3989L170.496 58.9356L155.549 49.5954Z" fill="#D17823"/>
<path d="M156.03 49.0599C161.177 43.3268 166.59 37.2976 168.432 30.4258L183.379 39.766C181.538 46.6379 176.125 52.6671 170.978 58.4001L170.978 58.4002L156.03 49.0599L156.03 49.0599Z" fill="#D17823"/>
<path d="M174.302 8.51989C179.377 8.29113 184.465 8.34663 189.546 8.70191L204.493 18.0422C199.413 17.6869 194.324 17.6314 189.249 17.8602L174.302 8.51989Z" fill="#D17823"/>
<path d="M84.7046 156.218C89.9348 136.699 110.69 122.136 130.746 123.912L145.694 133.253C125.637 131.476 104.882 146.039 99.6521 165.558L84.7046 156.218Z" fill="#D17823"/>
<path d="M96.4766 188.956C86.0668 182.448 81.0143 169.992 84.7047 156.219L99.6522 165.559C95.9618 179.332 101.014 191.789 111.424 198.296L96.4766 188.956Z" fill="#D17823"/>
<path d="M189.546 8.70312C192.425 8.90447 195.256 9.1989 198.037 9.58316L212.985 18.9234C210.204 18.5392 207.373 18.2447 204.493 18.0434L189.546 8.70312Z" fill="#D17823"/>
<path d="M153.971 97.1859C145.932 92.1611 142.374 80.5437 145.878 67.4688L160.825 76.809C157.322 89.884 160.879 101.501 168.918 106.526L153.971 97.1859Z" fill="#D17823"/>
<path d="M198.037 9.58203L192.196 31.3798L207.144 40.7201L212.985 18.9223L198.037 9.58203Z" fill="#D17823"/>
<path d="M194.49 51.3068L194.49 51.3069L209.437 60.6471L209.437 60.6471C207.408 54.3353 205.274 47.6968 207.144 40.7192L192.196 31.3789C190.327 38.3565 192.461 44.995 194.49 51.3068Z" fill="#D17823"/>
<path d="M162.108 99.7721C159.057 99.5588 156.325 98.6541 153.975 97.1862L168.918 106.524C171.269 107.993 174.003 108.899 177.056 109.112L162.108 99.7721Z" fill="#D17823"/>
<path d="M112.058 193.658C106.1 193.352 100.827 191.674 96.485 188.962L111.424 198.297C115.767 201.012 121.043 202.692 127.006 202.999L112.058 193.658Z" fill="#D17823"/>
<path d="M194.49 51.3086C194.58 51.588 194.67 51.8668 194.759 52.145L209.706 61.4852C209.617 61.2071 209.528 60.9283 209.438 60.6489L194.49 51.3086Z" fill="#D17823"/>
<path d="M241.017 24.7911C228.71 17.1041 214.231 11.8198 198.037 9.58203L212.985 18.9223C229.178 21.1601 243.658 26.4444 255.965 34.1314L241.017 24.7911Z" fill="#D17823"/>
<path d="M194.736 70.8828C190.208 87.7813 175.6 100.715 162.108 99.772L177.056 109.112C190.548 110.056 205.156 97.1216 209.683 80.2231L194.736 70.8828Z" fill="#D17823"/>
<path d="M194.758 52.1445C196.467 57.4802 196.586 63.9786 194.736 70.8836L209.683 80.2239C211.534 73.3189 211.414 66.8204 209.706 61.4848L194.758 52.1445Z" fill="#D17823"/>
<path d="M130.747 123.914L181.42 128.402L196.367 137.742L145.694 133.254L130.747 123.914Z" fill="#D17823"/>
<path d="M73.4966 233.629C87.9161 242.635 105.319 248.343 124.966 249.717L139.914 259.057C120.266 257.683 102.864 251.976 88.4441 242.969L73.4966 233.629Z" fill="#D17823"/>
<path d="M163.228 196.294L112.059 193.66L127.006 203L178.176 205.634L163.228 196.294Z" fill="#D17823"/>
<path d="M181.419 128.402C186.696 128.87 191.374 130.452 195.275 132.891L210.213 142.225C206.314 139.79 201.639 138.209 196.367 137.743L181.419 128.402Z" fill="#D17823"/>
<path d="M195.275 132.891C201.376 136.705 205.574 142.613 207.175 149.622L222.123 158.963C220.521 151.954 216.324 146.045 210.222 142.231L195.275 132.891Z" fill="#D17823"/>
<path d="M196.423 182.539C187.828 191.422 175.498 196.923 163.228 196.292L178.176 205.632C190.445 206.264 202.775 200.762 211.37 191.879L196.423 182.539Z" fill="#D17823"/>
<path d="M207.175 149.621L276.086 154.44L291.034 163.78L222.123 158.961L207.175 149.621Z" fill="#D17823"/>
<path d="M255.126 189.69C236.055 188.622 217.617 186.31 196.423 182.539L211.37 191.879C232.565 195.65 251.003 197.963 270.074 199.031L255.126 189.69Z" fill="#D17823"/>
<path fill-rule="evenodd" clip-rule="evenodd" d="M281.71 137.913C294.442 90.3974 277.051 47.3186 241.047 24.8118L255.965 34.1332C291.989 56.6348 309.393 99.7244 296.658 147.254C295.148 152.889 293.262 158.407 291.034 163.782L276.087 154.442C278.315 149.066 280.2 143.549 281.71 137.913ZM124.966 249.717C174.203 253.16 224.18 228.451 255.126 189.692L270.074 199.032C239.127 237.791 189.151 262.501 139.914 259.058L124.966 249.717Z" fill="url(#paint0_radial_25220_1403)"/>
<path d="M276.086 154.441C270.851 167.074 263.723 178.925 255.126 189.691L270.074 199.031C278.67 188.265 285.798 176.414 291.034 163.782L276.086 154.441Z" fill="#1A1A1A"/>
<path d="M194.49 51.3085C192.461 44.9967 190.327 38.3581 192.197 31.3805L198.037 9.5827C195.257 9.19844 192.426 8.90401 189.546 8.70266C184.465 8.34738 179.377 8.29187 174.302 8.52064L168.432 30.4262C166.591 37.298 161.178 43.3272 156.031 49.0603C155.87 49.2395 155.709 49.4184 155.549 49.5971C151.174 54.4738 147.706 60.6478 145.878 67.4674C141.35 84.3659 148.617 98.8296 162.109 99.7731C175.6 100.716 190.208 87.7824 194.736 70.8839C196.586 63.9789 196.467 57.4804 194.759 52.1448C194.684 51.9114 194.609 51.6774 194.533 51.4431L194.509 51.367L194.496 51.3261L194.49 51.3085Z" fill="#1A1A1A"/>
<path d="M130.747 123.914C110.69 122.138 89.9352 136.701 84.7051 156.22C79.4749 175.74 91.8054 192.616 112.059 193.659L163.229 196.292C175.498 196.924 187.828 191.423 196.423 182.539C217.618 186.31 236.056 188.623 255.127 189.691C263.723 178.924 270.851 167.074 276.087 154.441L207.176 149.622C204.55 138.133 194.949 129.6 181.42 128.402L130.747 123.914Z" fill="#1A1A1A"/>
<path d="M32.8026 120.507C14.9695 187.061 56.2328 244.91 124.967 249.716C174.203 253.159 224.18 228.45 255.127 189.691C236.056 188.623 217.618 186.31 196.423 182.539C187.828 191.423 175.498 196.924 163.229 196.292L112.059 193.659C91.8054 192.616 79.4749 175.74 84.7051 156.22C89.9352 136.701 110.69 122.138 130.747 123.914L181.42 128.402C194.949 129.6 204.55 138.133 207.176 149.622L276.087 154.441C278.315 149.065 280.2 143.548 281.71 137.912C298.796 74.1461 261.634 18.3711 198.037 9.5827L192.197 31.3805C190.327 38.3581 192.461 44.9967 194.49 51.3085L194.496 51.3261L194.509 51.367L194.533 51.4431C194.609 51.6774 194.684 51.9114 194.759 52.1448C196.467 57.4804 196.586 63.9789 194.736 70.8839C190.208 87.7824 175.6 100.716 162.109 99.7731C148.617 98.8296 141.35 84.3659 145.878 67.4674C147.706 60.6478 151.174 54.4738 155.549 49.5971C155.709 49.4184 155.87 49.2395 156.031 49.0603C161.178 43.3272 166.591 37.298 168.432 30.4262L174.302 8.52064C110.723 11.3867 49.3175 58.8723 32.8026 120.507Z" fill="url(#paint1_linear_25220_1403)"/>
<path d="M194.49 51.3085C192.461 44.9967 190.327 38.3581 192.197 31.3805L198.037 9.5827M194.49 51.3085L194.496 51.3261M194.49 51.3085C194.492 51.3143 194.494 51.3202 194.496 51.3261M174.302 8.52064L168.432 30.4262C166.591 37.298 161.178 43.3272 156.031 49.0603C155.87 49.2395 155.709 49.4184 155.549 49.5971C151.174 54.4738 147.706 60.6478 145.878 67.4674C141.35 84.3659 148.617 98.8296 162.109 99.7731C175.6 100.716 190.208 87.7824 194.736 70.8839C196.586 63.9789 196.467 57.4804 194.759 52.1448C194.684 51.9114 194.609 51.6774 194.533 51.4431M174.302 8.52064C179.377 8.29187 184.465 8.34738 189.546 8.70266C192.426 8.90401 195.257 9.19844 198.037 9.5827M174.302 8.52064C110.723 11.3867 49.3175 58.8723 32.8026 120.507C14.9695 187.061 56.2328 244.91 124.967 249.716C174.203 253.159 224.18 228.45 255.127 189.691M198.037 9.5827C261.634 18.3711 298.796 74.1461 281.71 137.912C280.2 143.548 278.315 149.065 276.087 154.441M255.127 189.691C236.056 188.623 217.618 186.31 196.423 182.539C187.828 191.423 175.498 196.924 163.229 196.292L112.059 193.659C91.8054 192.616 79.4749 175.74 84.7051 156.22C89.9352 136.701 110.69 122.138 130.747 123.914L181.42 128.402C194.949 129.6 204.55 138.133 207.176 149.622L276.087 154.441M255.127 189.691C263.723 178.924 270.851 167.074 276.087 154.441M194.496 51.3261L194.509 51.367M194.496 51.3261C194.5 51.3397 194.505 51.3533 194.509 51.367M194.509 51.367L194.533 51.4431M194.509 51.367C194.517 51.3923 194.525 51.4177 194.533 51.4431" stroke="url(#paint2_linear_25220_1403)" stroke-opacity="0.24" stroke-width="4"/>
<defs>
<radialGradient id="paint0_radial_25220_1403" cx="0" cy="0" r="1" gradientUnits="userSpaceOnUse" gradientTransform="translate(279.652 55.2699) rotate(108.113) scale(214.749 188.532)">
<stop stop-color="#F09741"/>
<stop offset="1" stop-color="#D17823"/>
</radialGradient>
<linearGradient id="paint1_linear_25220_1403" x1="245.459" y1="-24.7312" x2="156.854" y2="252.884" gradientUnits="userSpaceOnUse">
<stop stop-color="#FFB067"/>
<stop offset="1" stop-color="#FFC997"/>
</linearGradient>
<linearGradient id="paint2_linear_25220_1403" x1="189.546" y1="8.70266" x2="172.461" y2="253.037" gradientUnits="userSpaceOnUse">
<stop stop-color="white"/>
<stop offset="1" stop-color="white" stop-opacity="0"/>
</linearGradient>
</defs>
</svg>
