<svg width="144" height="33" viewBox="0 0 144 33" fill="none" xmlns="http://www.w3.org/2000/svg">
<g clip-path="url(#clip0_25138_29347)">
<rect width="33.4905" height="33" rx="16.5" fill="#FDA655"/>
<path fill-rule="evenodd" clip-rule="evenodd" d="M18.315 -4.40987C18.315 -5.28592 17.6049 -5.99609 16.7288 -5.99609C15.8528 -5.99609 15.1426 -5.28592 15.1426 -4.40987V1.0595C15.1426 3.32425 13.735 5.50872 13.5028 7.76154C13.4842 7.94183 13.4746 8.12574 13.4746 8.3125C13.4746 10.6263 14.9462 12.502 16.7615 12.502C18.5768 12.502 20.0484 10.6263 20.0484 8.3125C20.0484 8.11833 20.0381 7.92725 20.018 7.74011C19.7736 5.45975 18.315 3.24849 18.315 0.955069V-4.40987Z" fill="#1A1A1A"/>
<path fill-rule="evenodd" clip-rule="evenodd" d="M13.4015 16.0438C10.7291 15.9943 8.53613 18.1471 8.53613 20.8199C8.53613 23.4927 10.7291 25.6455 13.4015 25.596L20.393 25.4665C22.0112 25.4365 23.4236 24.5821 24.2326 23.3083C30.5318 23.9685 34.9144 23.8433 41.8958 22.9019V18.7821L24.4848 18.7821C23.7424 17.2628 22.1954 16.2067 20.393 16.1733L13.4015 16.0438Z" fill="#1A1A1A"/>
</g>
<path d="M44.502 25.9883V6.73828H47.9905V22.9633H57.34V25.9883H44.502Z" fill="#1A1A1A"/>
<path d="M64.0424 23.5133C65.1588 23.5133 66.0426 23.2291 66.6938 22.6608C67.345 22.0925 67.6706 21.3224 67.6706 20.3508V19.6633H64.0424C62.3679 19.6633 61.5307 20.305 61.5307 21.5883C61.5307 22.1566 61.7446 22.6241 62.1726 22.9908C62.6005 23.3391 63.2238 23.5133 64.0424 23.5133ZM63.3447 26.2633C61.8377 26.2633 60.619 25.8416 59.6887 24.9983C58.777 24.1366 58.3211 23.0458 58.3211 21.7258C58.3211 20.4241 58.8142 19.3425 59.8003 18.4808C60.7864 17.6191 62.154 17.1883 63.9029 17.1883H67.6706V16.5008C67.6706 15.6758 67.4101 15.0341 66.8891 14.5758C66.3682 14.1174 65.6518 13.8883 64.7402 13.8883C64.0331 13.8883 63.4471 14.0533 62.9819 14.3833C62.5354 14.6949 62.2377 15.0799 62.0888 15.5383H58.7956C59.1305 14.2366 59.8189 13.1824 60.8608 12.3758C61.9028 11.5508 63.1959 11.1383 64.7402 11.1383C66.6752 11.1383 68.1822 11.6149 69.2614 12.5683C70.3405 13.5216 70.8801 14.8324 70.8801 16.5008V25.9883H68.0892L67.8101 24.2008H67.6706C67.3543 24.7508 66.8054 25.2366 66.024 25.6583C65.2611 26.0616 64.368 26.2633 63.3447 26.2633Z" fill="#1A1A1A"/>
<path d="M74.3665 25.9883V11.4133H77.0178L77.4365 13.2008H77.576C78.4133 11.8258 79.6227 11.1383 81.2042 11.1383C82.2461 11.1383 83.1206 11.3766 83.8276 11.8533C84.5532 12.3299 85.0742 12.9166 85.3905 13.6133H85.53C85.8277 12.9349 86.3859 12.3574 87.2045 11.8808C88.0418 11.3858 89.0186 11.1383 90.135 11.1383C91.6978 11.1383 92.9723 11.6699 93.9585 12.7333C94.9446 13.7966 95.4376 15.2358 95.4376 17.0508V25.9883H92.2281V17.3258C92.2281 16.2808 91.9397 15.4741 91.3629 14.9058C90.8048 14.3191 90.1163 14.0258 89.2977 14.0258C88.4976 14.0258 87.8278 14.3283 87.2883 14.9333C86.7673 15.5199 86.5068 16.3174 86.5068 17.3258V25.9883H83.2973V17.3258C83.2973 16.2624 83.0275 15.4466 82.488 14.8783C81.9484 14.3099 81.2414 14.0258 80.3669 14.0258C79.5668 14.0258 78.897 14.3283 78.3575 14.9333C77.8365 15.5199 77.576 16.3174 77.576 17.3258V25.9883H74.3665Z" fill="#1A1A1A"/>
<path d="M105.314 26.2633C103.137 26.2633 101.407 25.6033 100.123 24.2833C98.8578 22.945 98.2252 21.0841 98.2252 18.7008C98.2252 16.3358 98.8578 14.4841 100.123 13.1458C101.388 11.8074 103.081 11.1383 105.202 11.1383C107.361 11.1383 109.063 11.8258 110.31 13.2008C111.556 14.5758 112.18 16.2716 112.18 18.2883L112.04 19.6633H101.574C101.649 20.7816 102.021 21.6799 102.691 22.3583C103.36 23.0366 104.244 23.3758 105.342 23.3758C106.589 23.3758 107.612 22.8258 108.412 21.7258H111.901C111.454 23.0641 110.673 24.155 109.556 24.9983C108.458 25.8416 107.044 26.2633 105.314 26.2633ZM101.574 17.1883H108.831C108.682 16.2533 108.291 15.4924 107.658 14.9058C107.026 14.3191 106.207 14.0258 105.202 14.0258C104.254 14.0258 103.463 14.3099 102.83 14.8783C102.216 15.4283 101.798 16.1983 101.574 17.1883Z" fill="#1A1A1A"/>
<path d="M115.112 25.9883V11.4133H117.764L118.182 13.2008H118.322C119.159 11.8258 120.508 11.1383 122.368 11.1383C123.987 11.1383 125.299 11.6791 126.304 12.7608C127.308 13.8424 127.811 15.2724 127.811 17.0508V25.9883H124.601V17.3258C124.601 16.2991 124.313 15.4924 123.736 14.9058C123.178 14.3191 122.443 14.0258 121.531 14.0258C120.582 14.0258 119.81 14.3466 119.215 14.9883C118.619 15.6299 118.322 16.4275 118.322 17.3808V25.9883H115.112Z" fill="#1A1A1A"/>
<path d="M136.744 26.2633C135.125 26.2633 133.813 25.7225 132.809 24.6408C131.804 23.5591 131.301 22.1291 131.301 20.3508V11.4133H134.511V20.0758C134.511 21.1025 134.79 21.9091 135.348 22.4958C135.925 23.0825 136.669 23.3758 137.581 23.3758C138.53 23.3758 139.302 23.055 139.897 22.4133C140.493 21.7716 140.79 20.9741 140.79 20.0208V11.4133H144V25.9883H141.349L140.93 24.2008H140.79C139.953 25.5758 138.604 26.2633 136.744 26.2633Z" fill="#1A1A1A"/>
<defs>
<clipPath id="clip0_25138_29347">
<rect width="33.4905" height="33" rx="16.5" fill="white"/>
</clipPath>
</defs>
</svg>
