<svg width="144" height="24" viewBox="0 0 144 24" fill="none" xmlns="http://www.w3.org/2000/svg">
<g clip-path="url(#clip0_25138_29447)">
<path d="M8.88236 20.8382H12.0338V3.0271H7.44944C2.83908 3.0271 0.417049 5.35897 0.417049 8.79329C0.417049 11.5355 1.74531 13.1497 4.11541 14.8157L0 20.8382H3.41193L7.99633 14.0981L6.40761 13.0475C4.47974 11.7662 3.54256 10.7667 3.54256 8.61368C3.54256 6.7169 4.89679 5.43639 7.47541 5.43639H8.88236V20.8382ZM69.6504 21.0937C71.0825 21.0937 72.0984 20.8382 72.8538 20.3001V17.8142C72.0724 18.3523 71.1352 18.6852 69.8321 18.6852C67.6186 18.6852 66.7066 16.9943 66.7066 14.3288C66.7066 11.5355 67.8271 10.1001 69.8589 10.1001C71.0565 10.1001 72.229 10.5105 72.8538 10.8945V8.3071C72.203 7.94865 71.0565 7.69239 69.5197 7.69239C65.5609 7.69239 63.5032 10.4857 63.5032 14.4062C63.5032 18.7115 65.509 21.0952 69.6504 21.0952V21.0937ZM50.271 19.9665V17.4813C49.307 18.1215 47.6923 18.6852 46.1815 18.6852C43.9153 18.6852 43.056 17.6346 42.9254 15.4823H50.4008V13.8674C50.4008 9.38245 48.3958 7.69161 45.2963 7.69161C41.5192 7.69161 39.722 10.536 39.722 14.431C39.722 18.9159 41.9622 21.0945 45.921 21.0945C47.9009 21.0945 49.3597 20.5819 50.271 19.9665ZM21.8801 7.94787V13.0475H17.738V7.94787H14.6384V20.8382H17.7388V15.4568H21.8793V20.8374H24.9797V7.9471H21.8793L21.8801 7.94787ZM38.9666 18.4289H37.5864V7.94787H28.5474V9.04955C28.5474 12.2021 28.3397 16.2766 27.2451 18.4289H26.282V23.7855H29.1462V20.8382H36.1015V23.7848H38.9666V18.4289ZM60.1692 20.8382H63.685L58.7103 13.8937L63.0862 7.94787H59.9607L55.5848 13.8937V7.94787H52.4845V20.8382H55.5848V14.5084L60.1692 20.8382ZM45.2443 10.1001C46.7811 10.1001 47.2493 11.3559 47.2493 12.9708V13.2263H42.9254C43.0041 11.177 43.7595 10.1001 45.2443 10.1001ZM34.4868 18.4289H30.1109C30.9702 16.4818 31.2047 12.9708 31.2047 10.7412V10.3564H34.486L34.4868 18.4289ZM99.1916 18.3538C97.1697 20.119 94.5602 21.0936 91.857 21.0929C85.9829 21.0929 81.5811 16.6165 81.5811 11.5006C81.5811 6.68826 85.4801 2.76 90.3148 2.76C94.8771 2.76 98.1694 6.24 98.1694 10.0088C98.1694 13.5406 95.3366 16.4059 91.857 16.4059C88.6733 16.4059 86.4268 14.033 86.4268 11.4999C86.4268 9.22684 88.2138 7.44697 90.3163 7.44697C92.1773 7.44697 93.3254 8.7809 93.3254 10.0088C93.3254 11.0733 92.5637 11.7174 91.857 11.7174C91.6076 11.7174 91.5124 11.6655 91.4117 11.6036C91.5287 11.456 91.6142 11.2867 91.6628 11.1057C91.7115 10.9247 91.7225 10.7359 91.6949 10.5507C91.6686 10.372 91.6068 10.2002 91.5129 10.045C91.419 9.88986 91.295 9.75445 91.1479 9.64651C91.0007 9.53858 90.8334 9.46025 90.6555 9.416C90.4776 9.37175 90.2925 9.36246 90.1109 9.38865C89.4578 9.48465 89.0424 9.92206 88.837 10.2457C88.6012 10.6227 88.478 11.0573 88.4813 11.4999C88.4813 13.3076 90.1936 14.4766 91.857 14.4766C94.2869 14.4782 96.1149 12.3902 96.1149 10.0088C96.1149 7.09316 93.5465 4.68697 90.3163 4.68697C86.5645 4.68697 83.6372 7.81239 83.6372 11.4999C83.6372 15.679 87.2585 19.1644 91.8586 19.1644C96.945 19.1644 100.961 14.9977 100.961 10.0072C100.961 4.64206 96.3439 0 90.3163 0C83.904 0 78.7932 5.20181 78.7932 11.4999C78.7932 18.2245 84.5311 23.8529 91.8586 23.8529C95.3642 23.8529 98.5794 22.5577 101.034 20.4279L99.1916 18.3538ZM91.2677 11.4705C91.2661 11.4689 91.2677 11.4674 91.2677 11.4705V11.4705ZM107.945 3.0271V20.8382H118.233V18.4289H111.096V13.0994H117.035V10.6908H111.096V5.43639H118.103V3.0271H107.945ZM132.379 18.4289H130.999V7.94787H121.96V9.04955C121.96 12.2021 121.752 16.2766 120.658 18.4289H119.695V23.7855H122.56V20.8382H129.514V23.7848H132.379V18.4289ZM127.9 18.4289H123.524C124.383 16.4818 124.617 12.9708 124.617 10.7412V10.3564H127.9V18.4289ZM143.735 12.048C143.735 8.92181 142.12 7.74271 138.838 7.74271C136.78 7.74271 135.165 8.38297 134.228 8.92181V11.4581C135.061 10.8426 136.884 10.1768 138.473 10.1768C139.958 10.1768 140.635 10.6893 140.635 12.0728V12.7905H140.14C135.399 12.7905 133.29 14.328 133.29 16.9417C133.29 19.5561 134.904 21.017 137.301 21.017C139.124 21.017 139.906 20.4271 140.505 19.8124H140.635C140.661 20.1453 140.765 20.5812 140.87 20.8374H143.891C143.787 19.7897 143.735 18.7376 143.735 17.6849V12.0472V12.048ZM140.635 17.7631C140.244 18.3267 139.515 18.7881 138.421 18.7881C137.119 18.7881 136.468 18.0194 136.468 16.8658C136.468 15.3538 137.536 14.8157 140.192 14.8157H140.635V17.7631Z" fill="black"/>
</g>
<defs>
<clipPath id="clip0_25138_29447">
<rect width="144" height="24" fill="white"/>
</clipPath>
</defs>
</svg>
