<svg width="21" height="20" viewBox="0 0 21 20" fill="none" xmlns="http://www.w3.org/2000/svg">
<path d="M15.2976 5.72452C15.2242 5.71856 15.1505 5.71856 15.0771 5.72452C14.2136 5.67235 13.5332 4.95704 13.5332 4.0763C13.5332 3.16382 14.2741 2.41797 15.1915 2.41797C16.1032 2.41797 16.8486 3.15757 16.8499 4.07389C16.843 4.95802 16.1596 5.6724 15.2976 5.72452Z" fill="#FF7A00" stroke="#FF7A00" stroke-width="1.5"/>
<path d="M17.5747 11.6269L17.5744 11.6272C17.0448 11.9818 16.3342 12.1939 15.5869 12.2393C15.7123 11.7494 15.7778 11.239 15.7833 10.7165L15.7833 10.7165V10.7087C15.7833 10.1552 15.7119 9.61362 15.5706 9.09814C16.3244 9.14178 17.0344 9.354 17.5686 9.70856L17.5686 9.70856L17.571 9.71014C18.0727 10.0404 18.2214 10.4013 18.2219 10.6652C18.2224 10.93 18.074 11.293 17.5747 11.6269Z" fill="#FF7A00" stroke="#FF7A00" stroke-width="1.5"/>
<path d="M6.23123 5.72452C6.15778 5.71856 6.08414 5.71856 6.0107 5.72452C5.14721 5.67235 4.4668 4.95704 4.4668 4.0763C4.4668 3.15549 5.2077 2.41797 6.1168 2.41797C7.03592 2.41797 7.77513 3.15718 7.77513 4.0763C7.77513 4.95704 7.09471 5.67235 6.23123 5.72452Z" fill="#FF7A00" stroke="#FF7A00" stroke-width="1.5"/>
<path d="M3.73171 9.70847L3.73172 9.70848L3.73531 9.70607C4.22397 9.37725 4.87985 9.16905 5.58076 9.10829C5.44495 9.61928 5.37494 10.1562 5.37494 10.7088C5.37494 11.235 5.44031 11.7464 5.56409 12.2356C4.87598 12.1709 4.23013 11.9614 3.73018 11.6332C3.22787 11.2988 3.0791 10.936 3.0791 10.6713C3.0791 10.4064 3.22817 10.0431 3.73171 9.70847Z" fill="#FF7A00" stroke="#FF7A00" stroke-width="1.5"/>
<path d="M10.7873 12.4735C10.7016 12.4669 10.6156 12.4674 10.5323 12.4736C9.42417 12.4153 8.54302 11.4988 8.54199 10.3686C8.54922 9.19517 9.49236 8.25 10.667 8.25C11.8354 8.25 12.7826 9.19647 12.7837 10.3647C12.7765 11.4995 11.9001 12.4143 10.7873 12.4735Z" fill="#FF7A00" stroke="#FF7A00" stroke-width="1.5"/>
<path d="M8.05898 14.9492C6.80065 15.7909 6.80065 17.1742 8.05898 18.0076C9.49232 18.9659 11.8423 18.9659 13.2757 18.0076C14.534 17.1659 14.534 15.7826 13.2757 14.9492C11.8507 13.9909 9.50065 13.9909 8.05898 14.9492Z" fill="#FF7A00"/>
</svg>
