<svg width="24" height="18" viewBox="0 0 24 18" fill="none" xmlns="http://www.w3.org/2000/svg">
<path fill-rule="evenodd" clip-rule="evenodd" d="M23.8309 12.5018C23.8309 12.5018 23.8309 17.6929 11.9999 17.6929C0.168945 17.6929 0.168945 12.5018 0.168945 12.5018V2.36091C0.168945 2.02754 0.439196 1.75729 0.772567 1.75729C1.10594 1.75729 1.37619 2.02754 1.37619 2.36091V5.93106C2.42706 2.7177 6.78433 0.308594 11.9999 0.308594C17.2155 0.308594 21.5728 2.7177 22.6237 5.93106V2.36091C22.6237 2.02754 22.8939 1.75729 23.2273 1.75729C23.5607 1.75729 23.8309 2.02754 23.8309 2.36091V12.5018Z" fill="#19A1D8"/>
<rect x="2.58301" y="7.3125" width="18.833" height="6.27767" rx="3.13883" fill="white"/>
<circle cx="5.84262" cy="10.5702" r="1.32797" fill="#19A1D8"/>
<circle cx="18.1571" cy="10.5702" r="1.32797" fill="#19A1D8"/>
</svg>
