<svg width="20" height="20" viewBox="0 0 20 20" fill="none" xmlns="http://www.w3.org/2000/svg">
<path d="M14.4195 3.79951L14.4199 3.79975C14.8145 4.02525 14.9541 4.53173 14.7245 4.93422C14.2701 5.72711 14.1377 6.61919 14.5668 7.36068C14.9961 8.10252 15.8359 8.4319 16.7503 8.4319C17.2062 8.4319 17.5859 8.80873 17.592 9.26943V10.7319C17.592 11.1901 17.2137 11.5652 16.7587 11.5652C15.8447 11.5652 15.0038 11.8944 14.5755 12.6376C14.1472 13.3809 14.2838 14.2737 14.7429 15.0659C14.9689 15.4578 14.8321 15.9714 14.4366 16.1974L14.4361 16.1976L12.9945 17.0226L12.9944 17.0225L12.9835 17.029C12.6965 17.1998 12.3027 17.1076 12.1134 16.7932L12.0244 16.6395L12.0242 16.6391C11.5652 15.8472 10.8587 15.284 10.0014 15.284C9.14341 15.284 8.43888 15.8478 7.98385 16.6407C7.98357 16.6412 7.98328 16.6417 7.98299 16.6422L7.89557 16.7932C7.7063 17.1076 7.3125 17.1998 7.02546 17.029L7.02552 17.0289L7.0145 17.0226L5.57283 16.1976L5.57243 16.1974C5.17814 15.9721 5.0385 15.4663 5.26726 15.0639C5.72538 14.2722 5.86143 13.3803 5.43348 12.6376C5.00517 11.8944 4.16428 11.5652 3.25033 11.5652C2.7921 11.5652 2.41699 11.1869 2.41699 10.7319V9.26523C2.41699 8.80701 2.7953 8.4319 3.25033 8.4319C4.16417 8.4319 5.00466 8.10287 5.43309 7.36122C5.8615 6.6196 5.72565 5.72926 5.26687 4.94084C5.03772 4.53696 5.17998 4.024 5.57243 3.79975L5.57283 3.79951L7.0145 2.97451L7.01455 2.97461L7.02546 2.96812C7.3182 2.79396 7.7036 2.89627 7.87364 3.19478L7.87362 3.19479L7.87626 3.19934L7.96792 3.35768L7.96811 3.358C8.42715 4.14997 9.13361 4.71315 9.99095 4.71315C10.8489 4.71315 11.5535 4.14931 12.0085 3.35638C12.0088 3.35588 12.009 3.35539 12.0093 3.35489L12.0968 3.20388C12.286 2.88952 12.6798 2.79735 12.9669 2.96812L12.9668 2.96821L12.9778 2.97451L14.4195 3.79951ZM6.54199 9.99856C6.54199 11.9044 8.09445 13.4569 10.0003 13.4569C11.9062 13.4569 13.4587 11.9044 13.4587 9.99856C13.4587 8.09268 11.9062 6.54023 10.0003 6.54023C8.09445 6.54023 6.54199 8.09268 6.54199 9.99856Z" fill="#FF7A00" stroke="#FF7A00" stroke-width="1.5"/>
</svg>
