<svg width="20" height="20" viewBox="0 0 20 20" fill="none" xmlns="http://www.w3.org/2000/svg">
<path d="M10 20C4.47715 20 0 15.5228 0 10C0 4.47715 4.47715 0 10 0C15.5228 0 20 4.47715 20 10C20 15.5228 15.5228 20 10 20ZM6.89015 11.1708L6.9028 11.1628C7.48253 13.0767 7.77239 14.0337 7.77239 14.0337C7.88466 14.3442 8.03902 14.3996 8.22632 14.3743C8.41352 14.3489 8.51292 14.2476 8.63512 14.1297C8.63512 14.1297 9.03142 13.7472 9.82402 12.9823L12.3749 14.8698C12.8397 15.1266 13.1753 14.9941 13.2907 14.4377L14.9485 6.61641C15.1315 5.88842 14.8105 5.59644 14.246 5.82754L4.51299 9.5871C3.84898 9.854 3.85219 10.2255 4.3921 10.3911L6.89015 11.1708Z" fill="#1A1A1A"/>
</svg>
