<svg width="20" height="20" viewBox="0 0 20 20" fill="none" xmlns="http://www.w3.org/2000/svg">
<path d="M14.514 8.61497L14.5141 8.61504L14.5229 8.6059C15.0407 8.07023 15.0534 7.2104 14.514 6.67097C13.9794 6.13641 13.1046 6.13641 12.57 6.67097L8.81699 10.424L7.43066 9.03764C6.8961 8.50308 6.02122 8.50308 5.48666 9.03764C4.9521 9.5722 4.9521 10.4471 5.48666 10.9816L7.845 13.34C8.10071 13.5957 8.44915 13.743 8.81699 13.743C9.18483 13.743 9.53328 13.5957 9.78899 13.34L14.514 8.61497ZM2.41699 10.0013C2.41699 5.82385 5.82287 2.41797 10.0003 2.41797C14.1778 2.41797 17.5837 5.82385 17.5837 10.0013C17.5837 14.1788 14.1778 17.5846 10.0003 17.5846C5.82287 17.5846 2.41699 14.1788 2.41699 10.0013Z" fill="#FF7A00" stroke="#FF7A00" stroke-width="1.5"/>
</svg>
