<svg width="160" height="60" viewBox="0 0 160 60" fill="none" xmlns="http://www.w3.org/2000/svg">
<g clip-path="url(#clip0_25138_29676)">
<mask id="mask0_25138_29676" style="mask-type:luminance" maskUnits="userSpaceOnUse" x="0" y="0" width="59" height="60">
<path d="M58.9831 30.0004C58.9831 13.5266 45.7792 0.171875 29.4915 0.171875C13.2038 0.171875 0 13.5266 0 30.0004C0 46.4743 13.2038 59.829 29.4915 59.829C45.7792 59.829 58.9831 46.4743 58.9831 30.0004Z" fill="white"/>
</mask>
<g mask="url(#mask0_25138_29676)">
<path d="M58.9831 30.0004C58.9831 13.5266 45.7792 0.171875 29.4915 0.171875C13.2038 0.171875 0 13.5266 0 30.0004C0 46.4743 13.2038 59.829 29.4915 59.829C45.7792 59.829 58.9831 46.4743 58.9831 30.0004Z" fill="#A6FC6F"/>
<path d="M56.5958 1.94878C59.2507 4.6339 60.5778 5.97649 61.0754 7.52463C61.5127 8.88643 61.5127 10.3533 61.0754 11.7151C60.5778 13.2633 59.2507 14.6058 56.5958 17.291L34.9313 39.2031C32.2765 41.888 30.9491 43.2307 29.4184 43.7336C28.072 44.1763 26.6217 44.1763 25.2753 43.7336C23.7446 43.2307 22.4172 41.888 19.7624 39.2031L11.5977 30.945C8.94287 28.2598 7.61548 26.9172 7.11816 25.3691C6.68067 24.0073 6.68067 22.5404 7.11816 21.1786C7.61548 19.6305 8.94287 18.2879 11.5977 15.6028L33.2621 -6.30928C35.9168 -8.99443 37.2442 -10.337 38.7751 -10.84C40.1215 -11.2825 41.5717 -11.2825 42.9181 -10.84C44.4486 -10.337 45.7761 -8.99443 48.431 -6.30928L56.5958 1.94878Z" fill="#7000FF"/>
<path d="M47.8281 29.9058C50.483 32.591 51.8105 33.9335 52.3077 35.4817C52.745 36.8435 52.745 38.3103 52.3077 39.6721C51.8105 41.2204 50.483 42.5627 47.8281 45.248L26.1637 67.16C23.5089 69.8452 22.1815 71.1879 20.6509 71.6908C19.3045 72.1331 17.8541 72.1331 16.5077 71.6908C14.9771 71.1879 13.6497 69.8452 10.9949 67.16L2.8301 58.9019C0.175304 56.217 -1.15209 54.8744 -1.64943 53.326C-2.08691 51.9642 -2.08691 50.4975 -1.64943 49.1356C-1.15209 47.5876 0.175305 46.245 2.8301 43.5597L24.4946 21.6477C27.1493 18.9626 28.4768 17.62 30.0074 17.117C31.3538 16.6745 32.8041 16.6745 34.1505 17.117C35.6813 17.62 37.0088 18.9626 39.6633 21.6477L47.8281 29.9058Z" fill="#7000FF"/>
</g>
<path d="M57.5488 29.9984C57.5488 14.326 44.9874 1.62109 29.4922 1.62109C13.9969 1.62109 1.43555 14.326 1.43555 29.9984C1.43555 45.6707 13.9969 58.3756 29.4922 58.3756C44.9874 58.3756 57.5488 45.6707 57.5488 29.9984Z" stroke="#A6FC6F" stroke-width="2.85425"/>
<path d="M37.8471 20.8203C38.7356 21.0181 39.5953 21.1872 40.439 21.4056C41.3356 21.6365 42.2241 21.9168 43.1126 22.1682C43.2387 22.2053 43.2878 22.2548 43.2878 22.399C43.2838 25.2061 43.3122 28.0173 43.2756 30.8244C43.2346 33.8418 42.2932 36.5705 40.4797 38.9695C38.4583 41.6448 35.8136 43.3676 32.5777 44.1511C31.3021 44.46 30.002 44.5632 28.6938 44.4847C25.5843 44.2992 22.8294 43.1904 20.4739 41.1336C18.0449 39.0192 16.5126 36.3562 15.8972 33.1657C15.722 32.2589 15.6527 31.3397 15.6527 30.4164C15.6486 27.7576 15.6527 25.1031 15.6445 22.4444C15.6445 22.2671 15.7016 22.2053 15.8605 22.1558C17.5559 21.6076 19.2839 21.1748 21.0322 20.8533C21.0485 20.8491 21.0648 20.8533 21.1055 20.8491C21.1055 20.9192 21.1055 20.9893 21.1055 21.0552C21.1055 24.39 21.0933 27.7288 21.1137 31.0635C21.1259 32.7453 21.3501 34.4064 21.9165 36.0017C22.3648 37.2672 23.0291 38.3965 24.0194 39.3116C24.9486 40.165 26.0367 40.705 27.2552 40.9687C28.9791 41.3437 30.6989 41.3149 32.3902 40.7749C34.3871 40.1403 35.7726 38.7963 36.661 36.9044C37.138 35.8944 37.4234 34.8229 37.6024 33.7222C37.8024 32.498 37.8512 31.2614 37.8512 30.0248C37.8512 27.0487 37.8512 24.0684 37.8512 21.0923C37.8471 21.014 37.8471 20.9398 37.8471 20.8203Z" fill="white"/>
<path d="M31.8938 27.0056C30.2677 27.0056 28.658 27.0056 27.04 27.0056C27.04 23.1722 27.04 19.3428 27.04 15.5176C27.5454 15.3568 30.932 15.3444 31.8938 15.5052C31.8938 19.3387 31.8938 23.1722 31.8938 27.0056Z" fill="white"/>
<path d="M125.021 18.7711C125.021 21.3898 123.588 22.5971 121.456 22.5971C119.324 22.5971 117.941 21.4068 117.941 18.7711V10.1328H113.34V18.9412C113.34 24.6802 117.991 26.9333 121.481 26.9333C124.971 26.9333 129.631 24.6802 129.631 18.9412V10.1328H125.029L125.021 18.7711Z" fill="#7000FF"/>
<path d="M109.462 14.1459V10.1328H94.5212V14.1459H103.362L94.1592 22.6141V26.6272H110.013V22.6141H100.275L109.462 14.1459Z" fill="#7000FF"/>
<path d="M152.655 9.82031C149.741 9.82031 147.543 11.0446 146.457 12.9066C145.346 11.0446 142.942 9.82031 140.439 9.82031C135.525 9.82031 132.965 13.0512 132.965 17.0472V26.6293H137.567V17.7274C137.567 15.8144 138.538 14.1395 140.769 14.1395C141.221 14.1139 141.682 14.182 142.102 14.352C142.53 14.522 142.917 14.7771 143.238 15.1087C143.559 15.4403 143.806 15.8399 143.971 16.282C144.127 16.7242 144.201 17.1918 144.169 17.6594V26.6378H148.77V17.6509C148.77 15.7379 149.865 14.1224 152.071 14.1224C154.277 14.1224 155.339 15.8059 155.339 17.7104V26.6123H159.941V17.0557C159.941 13.0597 157.57 9.82882 152.622 9.82882L152.655 9.82031Z" fill="#7000FF"/>
<path d="M86.5365 18.7711C86.5365 21.3898 85.1039 22.5971 82.9884 22.5971C80.8728 22.5971 79.4572 21.4068 79.4572 18.7711V10.1328H74.8555V18.9412C74.8555 24.6802 79.49 26.9333 82.9968 26.9333C86.5117 26.9333 91.1297 24.6802 91.1297 18.9412V10.1328H86.528L86.5365 18.7711Z" fill="#7000FF"/>
<path d="M114.097 47.2816V36.594H109.545L109.57 39.1956C108.582 37.6654 106.837 36.2539 103.75 36.2539C98.4321 36.2539 95.7074 40.5307 95.7074 44.8072C95.6087 49.1433 98.6955 53.4455 103.528 53.4455C106.096 53.4455 108.417 52.2554 109.545 50.2147C109.808 51.0736 110.336 51.8217 111.06 52.3404C111.776 52.8588 112.64 53.1139 113.513 53.0628H116.147V49.0668H115.414C114.509 49.0668 114.097 48.7181 114.097 47.2898V47.2816ZM104.713 49.3305C102.112 49.3305 100.144 47.4684 100.144 44.8497C100.144 42.2309 102.12 40.4371 104.713 40.4371C107.413 40.4371 109.364 42.2481 109.364 44.8497C109.364 47.4431 107.413 49.3305 104.713 49.3305Z" fill="#7000FF"/>
<path d="M84.289 53.4632C78.7819 53.4632 74.8555 50.7766 74.8555 44.2301V31.4766H79.4572V38.3124C80.7741 36.9691 82.5273 36.3142 85.0463 36.3142C90.5372 36.3142 93.5992 40.1912 93.5992 44.876C93.5992 50.4622 89.3846 53.4632 84.3219 53.4632H84.289ZM84.2395 40.4038C81.6219 40.4038 79.6382 42.2659 79.6382 44.8846C79.6382 47.5033 81.6056 49.2972 84.2395 49.2972C86.8656 49.2972 88.8907 47.4694 88.8907 44.8846C88.8907 42.2998 86.9399 40.4038 84.2395 40.4038Z" fill="#7000FF"/>
<path d="M140.077 53.0958H144.671V45.0101L151.824 53.0958H157.257L149.841 44.6275L156.681 36.6012H151.281L144.663 44.3213V31.5H140.069V53.0958H140.077Z" fill="#7000FF"/>
<path d="M119.456 36.6043H124.058V39.5631H124.313C124.585 39.0104 124.98 38.5171 125.491 38.0837C125.918 37.7264 126.495 37.3695 127.227 37.0548C127.96 36.7404 128.898 36.5703 130.059 36.5703C130.998 36.5703 131.87 36.7061 132.693 36.9783C133.516 37.2505 134.225 37.6753 134.834 38.2537C135.443 38.8318 135.912 39.5713 136.258 40.4556C136.595 41.3401 136.768 42.3941 136.768 43.627V53.0731H132.167V44.9703C132.167 43.5591 131.796 42.5134 131.055 41.8246C130.314 41.1358 129.327 40.7957 128.116 40.7957C126.775 40.7957 125.762 41.1869 125.079 41.9693C124.404 42.7513 124.05 43.7545 124.05 44.9703V53.0731H119.448V36.6043H119.456Z" fill="#7000FF"/>
</g>
<defs>
<clipPath id="clip0_25138_29676">
<rect width="160" height="60" fill="white"/>
</clipPath>
</defs>
</svg>
