<svg width="20" height="20" viewBox="0 0 20 20" fill="none" xmlns="http://www.w3.org/2000/svg">
<path d="M8.62502 8.25V9.38934L8.18035 8.94467C7.64579 8.41011 6.77092 8.41011 6.23636 8.94467C5.7018 9.47923 5.7018 10.3541 6.23636 10.8887L9.02802 13.6803C9.56258 14.2149 10.4375 14.2149 10.972 13.6803L13.7637 10.8887C14.2982 10.3541 14.2982 9.47923 13.7637 8.94467C13.4906 8.67161 13.1382 8.54167 12.7917 8.54167C12.4452 8.54167 12.0928 8.67161 11.8197 8.94467L11.375 9.38934V8.25H14C15.1753 8.25 16.0532 8.61412 16.6349 9.19663C17.2165 9.77897 17.5787 10.6564 17.575 11.831V11.8333V14C17.575 15.1752 17.211 16.0534 16.628 16.6363C16.0451 17.2193 15.1669 17.5833 13.9917 17.5833H6.00002C4.82488 17.5833 3.94689 17.2193 3.36405 16.6357C2.78112 16.0519 2.41669 15.1716 2.41669 13.9917V11.8333C2.41669 10.6582 2.78074 9.77994 3.36368 9.197C3.94663 8.61405 4.82486 8.25 6.00002 8.25H8.62502Z" fill="white" stroke="white" stroke-width="1.5"/>
<mask id="path-2-inside-1_9_345" fill="white">
<path d="M10.625 2.29175C10.625 1.95008 10.3417 1.66675 10 1.66675C9.65833 1.66675 9.375 1.95008 9.375 2.29175V7.50008H10.625V2.29175Z"/>
</mask>
<path d="M10.625 2.29175C10.625 1.95008 10.3417 1.66675 10 1.66675C9.65833 1.66675 9.375 1.95008 9.375 2.29175V7.50008H10.625V2.29175Z" fill="white"/>
<path d="M9.375 7.50008H7.875V9.00008H9.375V7.50008ZM10.625 7.50008V9.00008H12.125V7.50008H10.625ZM12.125 2.29175C12.125 1.12165 11.1701 0.166748 10 0.166748V3.16675C9.51324 3.16675 9.125 2.77851 9.125 2.29175H12.125ZM10 0.166748C8.82991 0.166748 7.875 1.12165 7.875 2.29175H10.875C10.875 2.77851 10.4868 3.16675 10 3.16675V0.166748ZM7.875 2.29175V7.50008H10.875V2.29175H7.875ZM9.375 9.00008H10.625V6.00008H9.375V9.00008ZM12.125 7.50008V2.29175H9.125V7.50008H12.125Z" fill="white" mask="url(#path-2-inside-1_9_345)"/>
</svg>
