<svg width="21" height="20" viewBox="0 0 21 20" fill="none" xmlns="http://www.w3.org/2000/svg">
<path d="M11.4267 14.4838L11.4561 14.4574L11.4825 14.428C11.5972 14.3006 11.7127 14.1432 11.7962 13.9303C11.8677 13.7557 11.9167 13.5528 11.9167 13.3346C11.9167 13.1125 11.8659 12.9062 11.7923 12.7295C11.7169 12.5486 11.6121 12.3853 11.4825 12.2412L11.4561 12.2119L11.4267 12.1855C11.3317 12.0999 11.2282 12.0252 11.1169 11.9626C11.4737 11.7135 11.7083 11.3 11.7083 10.8346V6.66797C11.7083 5.91209 11.0892 5.29297 10.3333 5.29297C9.57745 5.29297 8.95833 5.91209 8.95833 6.66797V10.8346C8.95833 11.3 9.19299 11.7135 9.54975 11.9626C9.43842 12.0252 9.335 12.0999 9.23994 12.1855L9.2106 12.2119L9.1842 12.2412C9.05453 12.3853 8.94974 12.5486 8.87436 12.7295C8.80073 12.9062 8.75 13.1125 8.75 13.3346C8.75 13.5528 8.79895 13.7557 8.87048 13.9304C8.95397 14.1432 9.06949 14.3006 9.1842 14.428L9.2106 14.4574L9.23994 14.4838C9.38401 14.6134 9.54729 14.7182 9.7282 14.7936C9.90492 14.8672 10.1112 14.918 10.3333 14.918C10.5554 14.918 10.7617 14.8672 10.9385 14.7936L10.65 14.1013L10.9385 14.7936C11.1194 14.7182 11.2827 14.6134 11.4267 14.4838ZM2.75 10.0013C2.75 5.82385 6.15588 2.41797 10.3333 2.41797C14.5108 2.41797 17.9167 5.82385 17.9167 10.0013C17.9167 14.1788 14.5108 17.5846 10.3333 17.5846C6.15588 17.5846 2.75 14.1788 2.75 10.0013Z" fill="#FF7A00" stroke="#FF7A00" stroke-width="1.5"/>
</svg>
