<svg width="20" height="20" viewBox="0 0 20 20" fill="none" xmlns="http://www.w3.org/2000/svg">
<path d="M11.0281 0C12.1535 0.00186 12.7238 0.00782002 13.2166 0.02249L13.4107 0.0288301C13.6349 0.0368 13.8561 0.0467999 14.1228 0.0592999C15.1869 0.10847 15.9128 0.2768 16.5503 0.5243C17.2094 0.77847 17.7661 1.1218 18.3219 1.67764C18.8769 2.23347 19.2203 2.7918 19.4753 3.4493C19.7219 4.08597 19.8903 4.81264 19.9403 5.8768C19.9522 6.14347 19.9618 6.36467 19.9697 6.58891L19.976 6.783C19.9906 7.27574 19.9973 7.84613 19.9994 8.97157L20.0002 9.71717C20.0003 9.80827 20.0003 9.90227 20.0003 9.99927L20.0002 10.2814L19.9996 11.0271C19.9977 12.1525 19.9918 12.7229 19.9771 13.2156L19.9707 13.4097C19.9628 13.634 19.9528 13.8552 19.9403 14.1218C19.8911 15.186 19.7219 15.9118 19.4753 16.5493C19.2211 17.2085 18.8769 17.7652 18.3219 18.321C17.7661 18.876 17.2069 19.2193 16.5503 19.4743C15.9128 19.721 15.1869 19.8893 14.1228 19.9393C13.8561 19.9512 13.6349 19.9609 13.4107 19.9687L13.2166 19.975C12.7238 19.9897 12.1535 19.9963 11.0281 19.9985L10.2824 19.9993C10.1913 19.9993 10.0973 19.9993 10.0003 19.9993H9.7182L8.9725 19.9986C7.8471 19.9968 7.27672 19.9908 6.78397 19.9761L6.58989 19.9698C6.36564 19.9618 6.14444 19.9518 5.87778 19.9393C4.81361 19.8902 4.08861 19.721 3.45028 19.4743C2.79194 19.2202 2.23444 18.876 1.67861 18.321C1.12278 17.7652 0.780277 17.206 0.525277 16.5493C0.277777 15.9118 0.110277 15.186 0.0602767 14.1218C0.0483967 13.8552 0.0387066 13.634 0.0308566 13.4097L0.0245667 13.2156C0.00993665 12.7229 0.00326674 12.1525 0.00110674 11.0271L0.000976562 8.97157C0.00283656 7.84613 0.00878657 7.27574 0.0234566 6.783L0.0298066 6.58891C0.0377766 6.36467 0.0477767 6.14347 0.0602767 5.8768C0.109437 4.8118 0.277777 4.0868 0.525277 3.4493C0.779437 2.79097 1.12278 2.23347 1.67861 1.67764C2.23444 1.1218 2.79278 0.7793 3.45028 0.5243C4.08778 0.2768 4.81278 0.1093 5.87778 0.0592999C6.14444 0.0474299 6.36564 0.0377401 6.58989 0.0298901L6.78397 0.0235999C7.27672 0.00895986 7.8471 0.00228994 8.9725 0.000129938L11.0281 0ZM10.0003 4.9993C7.23738 4.9993 5.00028 7.23883 5.00028 9.99927C5.00028 12.7622 7.23981 14.9993 10.0003 14.9993C12.7632 14.9993 15.0003 12.7598 15.0003 9.99927C15.0003 7.2364 12.7607 4.9993 10.0003 4.9993ZM10.0003 6.9993C11.6572 6.9993 13.0003 8.34197 13.0003 9.99927C13.0003 11.6562 11.6576 12.9993 10.0003 12.9993C8.3434 12.9993 7.00028 11.6567 7.00028 9.99927C7.00028 8.34237 8.3429 6.9993 10.0003 6.9993ZM15.2503 3.4993C14.561 3.4993 14.0003 4.05921 14.0003 4.74845C14.0003 5.4377 14.5602 5.99847 15.2503 5.99847C15.9395 5.99847 16.5003 5.43857 16.5003 4.74845C16.5003 4.05921 15.9386 3.49844 15.2503 3.4993Z" fill="#1A1A1A"/>
</svg>
