<svg width="157" height="40" viewBox="0 0 157 40" fill="none" xmlns="http://www.w3.org/2000/svg">
<g clip-path="url(#clip0_25138_29668)">
<path fill-rule="evenodd" clip-rule="evenodd" d="M39.3739 20.1562C39.3739 27.7931 27.2594 39.9996 19.6797 39.9996C12.1 39.9996 -0.0146484 27.7931 -0.0146484 20.1562C-0.0146484 12.5193 12.1 0.3125 19.6797 0.3125C27.2594 0.3125 39.3739 12.5193 39.3739 20.1562ZM27.5573 20.1562C27.5573 23.211 22.7113 28.0935 19.6797 28.0935C16.6477 28.0935 11.8019 23.211 11.8019 20.1562C11.8019 17.1015 16.6479 12.2187 19.6797 12.2187C22.7113 12.2187 27.5573 17.1015 27.5573 20.1562Z" fill="#0065FF"/>
<path d="M60.8209 39.9977C68.1706 39.9977 72.7766 35.3567 74.1741 29.2552H66.1001C65.1169 31.3411 63.5641 32.9056 60.8209 32.9056C57.5085 32.9056 55.0761 30.5069 55.0761 26.387C55.0761 22.2674 57.5085 19.8683 60.8209 19.8683C63.5641 19.8683 65.1169 21.4328 66.1001 23.519H74.1741C72.7766 17.4175 68.1706 12.7762 60.8209 12.7762C52.9538 12.7762 47.209 18.8256 47.209 26.387C47.209 33.9487 52.9538 39.9977 60.8209 39.9977ZM76.9302 39.4242H84.7456V0.312843H76.9302V39.4242ZM93.2983 9.80372C96.0414 9.80372 98.2152 7.61352 98.2152 4.90175C98.2152 2.19019 96.0414 0 93.2983 0C90.6589 0 88.4331 2.19019 88.4331 4.90175C88.4331 7.61352 90.6589 9.80372 93.2983 9.80372ZM89.4166 39.4242H97.232V13.35H89.4166V39.4242ZM113.963 39.9977C121.312 39.9977 125.918 35.3567 127.316 29.2552H119.242C118.258 31.3411 116.706 32.9056 113.963 32.9056C110.65 32.9056 108.218 30.5069 108.218 26.387C108.218 22.2674 110.65 19.8683 113.963 19.8683C116.706 19.8683 118.258 21.4328 119.242 23.519H127.316C125.918 17.4175 121.312 12.7762 113.963 12.7762C106.096 12.7762 100.351 18.8256 100.351 26.387C100.351 33.9487 106.096 39.9977 113.963 39.9977ZM147.514 39.4242H156.985L145.185 25.1356L154.708 13.35H145.443L137.887 22.6845V0.312843H130.072V39.4242H137.887V27.795L147.514 39.4242Z" fill="#181926"/>
</g>
<defs>
<clipPath id="clip0_25138_29668">
<rect width="157" height="40" fill="white"/>
</clipPath>
</defs>
</svg>
