<svg width="48" height="48" viewBox="0 0 48 48" fill="none" xmlns="http://www.w3.org/2000/svg">
<path d="M35.1253 21.3125L35.8628 33.675C35.8878 34.0125 35.7253 34.2375 35.6378 34.3375C35.5378 34.45 35.3253 34.625 34.9753 34.625H31.5628L34.2628 21.3125H35.1253ZM36.5003 16.5L36.4878 16.525C36.5128 16.825 36.4878 17.1375 36.4128 17.45L27.2003 34.3625C26.9003 35.625 25.7753 36.5 24.4753 36.5H34.9753C36.5878 36.5 37.8628 35.1375 37.7378 33.525L36.5003 16.5Z" fill="#1A1A1A"/>
<path d="M23.3128 11.8017C23.4378 11.3017 23.1253 10.7892 22.6253 10.6642C22.1253 10.5517 21.6128 10.8517 21.4878 11.3517L20.8628 13.9392H22.7878L23.3128 11.8017Z" fill="#1A1A1A"/>
<path d="M31.5628 11.7637C31.6753 11.2512 31.3503 10.7637 30.8378 10.6512C30.3378 10.5387 29.8378 10.8637 29.7253 11.3762L29.1628 13.9637H31.0878L31.5628 11.7637Z" fill="#1A1A1A"/>
<path d="M36.2747 15.6633C35.8622 14.6633 34.8872 13.9508 33.6872 13.9508H31.0872L30.3872 17.1883C30.2872 17.6258 29.8997 17.9258 29.4747 17.9258C29.4122 17.9258 29.3372 17.9258 29.2747 17.9008C28.7747 17.7883 28.4497 17.2883 28.5497 16.7883L29.1622 13.9383H22.7872L21.9997 17.1883C21.8997 17.6133 21.5122 17.9008 21.0872 17.9008C21.0122 17.9008 20.9372 17.8883 20.8622 17.8758C20.3622 17.7508 20.0497 17.2508 20.1747 16.7383L20.8497 13.9258H18.3122C17.0872 13.9258 15.9997 14.7258 15.6372 15.9008L10.3747 32.8383C9.82469 34.6508 11.1622 36.5008 13.0497 36.5008H29.4747C30.7747 36.5008 31.8997 35.6258 32.1997 34.3633L36.4122 17.4508C36.4872 17.1383 36.5122 16.8258 36.4872 16.5258C36.4622 16.2258 36.3997 15.9258 36.2747 15.6633ZM27.3747 29.9383H17.3747C16.8622 29.9383 16.4372 29.5133 16.4372 29.0008C16.4372 28.4883 16.8622 28.0633 17.3747 28.0633H27.3747C27.8872 28.0633 28.3122 28.4883 28.3122 29.0008C28.3122 29.5133 27.8872 29.9383 27.3747 29.9383ZM28.6247 24.9383H18.6247C18.1122 24.9383 17.6872 24.5133 17.6872 24.0008C17.6872 23.4883 18.1122 23.0633 18.6247 23.0633H28.6247C29.1372 23.0633 29.5622 23.4883 29.5622 24.0008C29.5622 24.5133 29.1372 24.9383 28.6247 24.9383Z" fill="#1A1A1A"/>
<circle cx="24" cy="24" r="23.5" stroke="#1A1A1A"/>
</svg>
