<svg width="512" height="512" viewBox="0 0 512 512" fill="none" xmlns="http://www.w3.org/2000/svg">
<g clip-path="url(#clip0_18343_104905)">
<rect width="512" height="512" rx="256" fill="#FB9807"/>
<path fill-rule="evenodd" clip-rule="evenodd" d="M280 -68.75C280 -82.1429 269.143 -93 255.75 -93C242.357 -93 231.5 -82.1429 231.5 -68.75V42.0172C231.5 61.1279 220.836 78.6725 212.918 96.0658C208.522 105.724 206 116.981 206 129C206 164.898 228.498 194 256.25 194C284.002 194 306.5 164.898 306.5 129C306.5 116.881 303.936 105.537 299.472 95.8261C291.265 77.9725 280 59.9867 280 40.337V-68.75Z" fill="#090801"/>
<path fill-rule="evenodd" clip-rule="evenodd" d="M205.987 248.92C164.528 248.14 130.5 281.535 130.5 323C130.5 364.466 164.528 397.861 205.987 397.081L310.731 395.112C335.848 394.64 357.767 381.37 370.316 361.592C466.698 371.853 533.713 369.916 640.5 355.303V291.382L374.217 291.382C362.7 267.807 338.698 251.415 310.731 250.889L205.987 248.92Z" fill="#000B05"/>
</g>
<defs>
<clipPath id="clip0_18343_104905">
<rect width="512" height="512" rx="256" fill="white"/>
</clipPath>
</defs>
</svg>