<svg width="20" height="20" viewBox="0 0 20 20" fill="none" xmlns="http://www.w3.org/2000/svg">
<path d="M9.99929 20C4.47642 20 -0.000732422 15.5228 -0.000732422 10C-0.000732422 4.47715 4.47642 0 9.99929 0C15.5221 0 19.9993 4.47715 19.9993 10C19.9993 15.5228 15.5221 20 9.99929 20ZM6.88942 11.1708L6.90207 11.1628C7.4818 13.0767 7.77166 14.0337 7.77166 14.0337C7.88393 14.3442 8.03829 14.3996 8.22559 14.3743C8.41279 14.3489 8.51219 14.2476 8.63439 14.1297C8.63439 14.1297 9.03069 13.7472 9.82329 12.9823L12.3742 14.8698C12.839 15.1266 13.1746 14.9941 13.29 14.4377L14.9478 6.61641C15.1308 5.88842 14.8098 5.59644 14.2453 5.82754L4.51226 9.5871C3.84825 9.854 3.85146 10.2255 4.39137 10.3911L6.88942 11.1708Z" fill="#1A1A1A"/>
</svg>
